<svg width="519" height="501" viewBox="0 0 519 501" fill="none" xmlns="http://www.w3.org/2000/svg">
<g opacity="0.07" clip-path="url(#clip0_31_236)">
<path fill-rule="evenodd" clip-rule="evenodd" d="M210.612 6.99305C143.993 20.1181 72.8638 69.0764 40.6649 124.076C5.41255 184.215 -9.22965 267.271 5.89831 321.368L13.8787 349.979L26.3696 324.771C44.4815 288.104 107.422 232.34 200.758 170.187C309.29 97.8958 359.67 45.4653 344.196 20.9514C338.852 12.4792 282.088 -0.229167 254.746 0.881944C245.586 1.29861 225.739 4.00694 210.612 6.99305ZM354.188 34.9097C357.797 53.8681 338.297 87.3403 308.111 113.799C296.175 124.285 243.851 161.576 191.875 196.576C58.985 286.16 7.77196 344.632 30.6027 380.743C34.6969 387.132 42.8161 382.201 63.9119 360.396C82.4402 341.229 127.061 311.993 196.802 273.174C353.147 186.229 391.939 156.229 406.928 110.882C416.921 80.7431 405.193 47.4097 379.031 31.5069C353.147 15.7431 350.649 16.0903 354.188 34.9097ZM418.656 61.7847C429.481 82.8958 427.122 121.924 413.798 143.312C383.75 191.368 334.064 227.34 203.117 295.743C99.9276 349.701 50.4495 386.09 50.4495 408.104C50.4495 423.799 60.3034 427.896 69.9493 416.16C82.9954 400.465 122.064 382.757 211.861 352.063C457.933 267.826 538.777 170.604 441.139 76.3681C424.138 59.9792 414.561 53.7986 418.656 61.7847ZM496.447 174.146C494.642 221.924 446.136 274.146 364.042 316.854C336.77 331.021 267.307 358.799 209.571 378.59C120.676 409.146 69.2553 434.493 78.2072 443.382C79.3869 444.562 91.7391 441.507 105.618 436.646C119.497 431.715 169.322 420.187 216.371 410.882C371.468 380.326 458.349 345.882 496.169 299.91C521.984 268.59 525.176 244.285 509.909 196.09C500.263 166.021 496.932 160.535 496.447 174.146ZM490.826 334.979C449.744 376.993 369.594 406.021 210.889 436.299C162.868 445.465 119.289 455.674 114.084 459.007C106.589 463.799 107.283 464.354 117.276 461.854C124.285 460.118 165.783 455.604 209.501 451.785C370.635 437.896 456.337 416.09 485.413 381.576C499.778 364.493 519.069 319.771 513.865 315.465C512.685 314.493 502.276 323.243 490.826 334.979ZM433.159 436.646C405.887 448.521 335.66 462.826 266.751 470.535C216.024 476.16 218.037 476.368 298.534 474.007C395.617 471.09 423.444 465.049 444.817 442.271C461.888 424.076 461.888 424.076 433.159 436.646ZM314.495 496.229L276.328 500.465L311.303 500.812C330.525 500.951 354.882 498.937 365.361 496.299C382.015 492.062 382.432 491.507 368.553 491.785C359.809 491.924 335.452 493.937 314.495 496.229Z" fill="white"/>
</g>
<defs>
<clipPath id="clip0_31_236">
<rect width="519" height="500" fill="white" transform="translate(0 0.8125)"/>
</clipPath>
</defs>
</svg>
