<svg width="108" height="108" viewBox="0 0 108 108" fill="none" xmlns="http://www.w3.org/2000/svg">
<path d="M66.24 39.555L46.935 58.905L39.51 51.48C39.1066 51.0089 38.6102 50.6263 38.0519 50.3562C37.4936 50.0861 36.8855 49.9343 36.2658 49.9104C35.646 49.8865 35.028 49.9909 34.4506 50.2171C33.8731 50.4434 33.3486 50.7865 32.9101 51.2251C32.4715 51.6636 32.1284 52.1881 31.9022 52.7655C31.6759 53.343 31.5715 53.961 31.5954 54.5807C31.6194 55.2005 31.7712 55.8086 32.0413 56.3669C32.3114 56.9252 32.694 57.4216 33.165 57.825L43.74 68.445C44.1605 68.8621 44.6592 69.192 45.2074 69.416C45.7557 69.6399 46.3428 69.7534 46.935 69.75C48.1156 69.745 49.2468 69.2763 50.085 68.445L72.585 45.945C73.0068 45.5267 73.3416 45.029 73.57 44.4806C73.7985 43.9322 73.9161 43.3441 73.9161 42.75C73.9161 42.1559 73.7985 41.5678 73.57 41.0194C73.3416 40.471 73.0068 39.9733 72.585 39.555C71.7419 38.7169 70.6014 38.2464 69.4125 38.2464C68.2237 38.2464 67.0832 38.7169 66.24 39.555ZM54 9C45.0999 9 36.3996 11.6392 28.9994 16.5839C21.5991 21.5285 15.8314 28.5566 12.4254 36.7792C9.0195 45.0019 8.12835 54.0499 9.86468 62.7791C11.601 71.5082 15.8869 79.5264 22.1802 85.8198C28.4736 92.1132 36.4918 96.399 45.221 98.1353C53.9501 99.8717 62.9981 98.9805 71.2208 95.5746C79.4435 92.1686 86.4715 86.4009 91.4161 79.0007C96.3608 71.6004 99 62.9002 99 54C99 48.0905 97.8361 42.2389 95.5746 36.7792C93.3131 31.3196 89.9985 26.3588 85.8198 22.1802C81.6412 18.0016 76.6804 14.6869 71.2208 12.4254C65.7611 10.164 59.9095 9 54 9ZM54 90C46.8799 90 39.9197 87.8886 33.9995 83.9329C28.0793 79.9772 23.4651 74.3547 20.7404 67.7766C18.0156 61.1985 17.3027 53.9601 18.6918 46.9767C20.0808 39.9934 23.5095 33.5788 28.5442 28.5442C33.5789 23.5095 39.9935 20.0808 46.9768 18.6917C53.9601 17.3027 61.1985 18.0156 67.7766 20.7403C74.3548 23.4651 79.9772 28.0793 83.9329 33.9995C87.8886 39.9196 90 46.8799 90 54C90 63.5478 86.2072 72.7045 79.4559 79.4558C72.7046 86.2072 63.5478 90 54 90Z" fill="#00A896"/>
</svg>
