<svg width="103" height="75" viewBox="0 0 103 75" fill="none" xmlns="http://www.w3.org/2000/svg">
<g clip-path="url(#clip0_112_503)">
<path fill-rule="evenodd" clip-rule="evenodd" d="M51.5 11.3418L51.7802 11.2528C37.8429 16.2097 26.8157 24.7018 26.5888 30.9389C26.346 37.6152 38.5688 39.1808 53.8822 34.4386C69.1956 29.6965 81.81 20.436 82.0518 13.7604C82.1772 10.3014 78.9516 8.21554 73.6866 7.6665C80.1223 7.99593 84.1538 10.1457 84.1538 13.9835C84.1538 21.2984 69.5315 31.9776 51.5 37.8357C33.4685 43.6937 18.8462 42.5073 18.8462 35.1926C18.8462 27.8779 33.4685 17.1984 51.5 11.3424" fill="#333333"/>
<path fill-rule="evenodd" clip-rule="evenodd" d="M25.9307 49.8027L71.1982 0L67.095 39.1501L59.6101 29.3282L25.9307 49.8027Z" fill="#333333"/>
<path d="M7.99099 66.4319C7.99099 68.5363 6.66989 70.5677 4.38297 70.5677H2.06252V74.704H0V62.2957H3.86633C6.68579 62.2957 7.99099 64.0309 7.99099 66.4319ZM5.92866 66.4319C5.92866 65.268 5.12381 64.6592 4.12465 64.6592H2.06252V68.2042H4.12465C5.12439 68.2042 5.92866 67.4657 5.92866 66.4319Z" fill="#333333"/>
<path d="M20.6907 68.4979C20.6911 69.7836 20.3587 71.0407 19.7357 72.11C19.1127 73.1793 18.2269 74.0128 17.1905 74.5052C16.154 74.9975 15.0135 75.1266 13.913 74.876C12.8126 74.6254 11.8017 74.0065 11.0082 73.0974C10.2148 72.1884 9.67435 71.0301 9.45532 69.7691C9.2363 68.508 9.34852 67.2008 9.77779 66.0129C10.207 64.8249 10.9341 63.8095 11.8669 63.0952C12.7998 62.3808 13.8965 61.9995 15.0185 61.9995C16.5218 62.0022 17.9628 62.6877 19.026 63.9057C20.0892 65.1238 20.6878 66.775 20.6907 68.4979ZM18.6282 68.4979C18.628 67.6799 18.4161 66.8804 18.0194 66.2004C17.6228 65.5204 17.0591 64.9904 16.3996 64.6775C15.7402 64.3646 15.0146 64.2828 14.3146 64.4425C13.6146 64.6022 12.9716 64.9961 12.4669 65.5745C11.9622 66.1529 11.6185 66.8898 11.4792 67.692C11.34 68.4943 11.4114 69.3258 11.6844 70.0816C11.9575 70.8373 12.4199 71.4833 13.0133 71.9379C13.6067 72.3924 14.3043 72.6352 15.0181 72.6354C15.4925 72.6365 15.9624 72.5303 16.4008 72.3227C16.8393 72.1152 17.2376 71.8105 17.5731 71.426C17.9085 71.0416 18.1744 70.585 18.3555 70.0825C18.5365 69.58 18.6292 69.0415 18.6282 68.4979Z" fill="#333333"/>
<path d="M30.6001 71.3621L31.3891 73.5051C30.4094 74.4641 29.1649 74.9941 27.8765 75.0009C24.7021 75.0009 22.1084 72.0824 22.1084 68.5003C22.1084 64.9182 24.7021 62.0019 27.8765 62.0019C29.0849 62.0019 30.4713 62.5184 31.3891 63.4788L30.5993 65.6209C29.8808 64.8146 28.9147 64.3639 27.9091 64.3658C25.8467 64.3658 24.1709 66.2106 24.1709 68.5003C24.1709 70.79 25.8467 72.6378 27.9091 72.6378C28.4093 72.643 28.9054 72.5326 29.3677 72.3135C29.8301 72.0943 30.2492 71.7707 30.6001 71.3621Z" fill="#333333"/>
<path d="M42.8229 74.704H40.2125L36.1191 69.2753V74.704H34.0571V62.2957H36.1191V67.4292L39.9547 62.2957H42.5653L37.9235 68.2225L42.8229 74.704Z" fill="#333333"/>
<path d="M54.5955 68.4979C54.5959 69.7837 54.2635 71.0408 53.6404 72.1101C53.0173 73.1795 52.1315 74.013 51.095 74.5053C50.0585 74.9976 48.9179 75.1266 47.8174 74.8759C46.7169 74.6252 45.706 74.0061 44.9126 73.097C44.1192 72.1878 43.5789 71.0294 43.36 69.7683C43.1411 68.5071 43.2535 67.1999 43.6829 66.012C44.1123 64.824 44.8395 63.8087 45.7725 63.0945C46.7055 62.3803 47.8024 61.9992 48.9244 61.9995C50.4276 62.0022 51.8685 62.6878 52.9315 63.9058C53.9945 65.1239 54.5929 66.7751 54.5955 68.4979ZM52.5336 68.4979C52.5333 67.6798 52.3215 66.8803 51.9247 66.2002C51.528 65.5202 50.9643 64.9903 50.3048 64.6774C49.6453 64.3646 48.9196 64.2828 48.2196 64.4426C47.5195 64.6023 46.8766 64.9964 46.3719 65.5749C45.8673 66.1534 45.5237 66.8904 45.3845 67.6927C45.2453 68.495 45.3169 69.3266 45.5901 70.0823C45.8633 70.8381 46.3259 71.484 46.9194 71.9384C47.5129 72.3928 48.2106 72.6354 48.9244 72.6354C49.3986 72.6363 49.8684 72.5299 50.3067 72.3222C50.7449 72.1146 51.1431 71.8098 51.4784 71.4254C51.8137 71.041 52.0794 70.5845 52.2604 70.0821C52.4414 69.5797 52.534 69.0414 52.533 68.4979H52.5336Z" fill="#333333"/>
<path d="M64.5042 71.3621L65.294 73.5042C64.3144 74.4631 63.07 74.9931 61.7817 75C58.6074 75 56.0137 72.0815 56.0137 68.4994C56.0137 64.9172 58.6074 62.001 61.7817 62.001C62.9904 62.001 64.3753 62.5175 65.294 63.4779L64.5042 65.62C63.7858 64.8138 62.8198 64.3631 61.8143 64.3649C59.752 64.3649 58.0758 66.2097 58.0758 68.4994C58.0758 70.7891 59.752 72.6369 61.8143 72.6369C62.3144 72.642 62.8102 72.5317 63.2723 72.3127C63.7344 72.0937 64.1534 71.7704 64.5042 71.3621Z" fill="#333333"/>
<path d="M79.8538 74.704H77.6623L76.7603 66.5795L73.9255 74.704H72.8945L70.0584 66.5795L69.156 74.704H66.9644L68.5114 62.2957H70.5735L73.4096 70.273L76.2458 62.2957H78.3081L79.8538 74.704Z" fill="#333333"/>
<path d="M92.3011 68.4979C92.3014 69.7836 91.9691 71.0407 91.3461 72.11C90.723 73.1793 89.8372 74.0128 88.8008 74.5052C87.7644 74.9975 86.6238 75.1266 85.5234 74.876C84.4229 74.6254 83.4121 74.0065 82.6186 73.0974C81.8251 72.1884 81.2847 71.0301 81.0657 69.7691C80.8467 68.508 80.9589 67.2008 81.3881 66.0129C81.8174 64.8249 82.5444 63.8095 83.4773 63.0952C84.4101 62.3808 85.5069 61.9995 86.6288 61.9995C88.1322 62.0018 89.5735 62.6872 90.6367 63.9053C91.7 65.1234 92.2985 66.7749 92.3011 68.4979ZM90.2387 68.4979C90.2385 67.6798 90.0266 66.8803 89.6299 66.2002C89.2332 65.5202 88.6695 64.9903 88.0099 64.6774C87.3504 64.3646 86.6248 64.2828 85.9248 64.4426C85.2247 64.6023 84.5817 64.9964 84.0771 65.5749C83.5725 66.1534 83.2288 66.8904 83.0897 67.6927C82.9505 68.495 83.022 69.3266 83.2952 70.0823C83.5684 70.8381 84.031 71.484 84.6245 71.9384C85.218 72.3928 85.9158 72.6354 86.6296 72.6354C87.1039 72.6364 87.5737 72.5301 88.0121 72.3225C88.4504 72.1149 88.8487 71.8102 89.1841 71.4257C89.5194 71.0413 89.7852 70.5848 89.9663 70.0823C90.1473 69.5799 90.2399 69.0414 90.2389 68.4979H90.2387Z" fill="#333333"/>
<path d="M102.21 71.3621L103 73.5042C102.02 74.4631 100.776 74.9931 99.4873 75C96.3135 75 93.7192 72.0815 93.7192 68.4994C93.7192 64.9172 96.3132 62.001 99.4873 62.001C100.696 62.001 102.081 62.5175 103 63.4779L102.21 65.62C101.492 64.8137 100.526 64.363 99.5199 64.3649C97.4576 64.3649 95.7819 66.2097 95.7819 68.4994C95.7819 70.7891 97.4576 72.6369 99.5199 72.6369C100.02 72.6419 100.516 72.5316 100.978 72.3126C101.44 72.0936 101.859 71.7704 102.21 71.3621Z" fill="#333333"/>
</g>
<defs>
<clipPath id="clip0_112_503">
<rect width="103" height="75" fill="white"/>
</clipPath>
</defs>
</svg>
