<svg width="61" height="73" viewBox="0 0 61 73" fill="none" xmlns="http://www.w3.org/2000/svg">
<g clip-path="url(#clip0_112_518)">
<path fill-rule="evenodd" clip-rule="evenodd" d="M28.7617 3.37455C27.8075 5.27111 26.9104 7.06003 26.768 7.34976L26.5091 7.87658L27.3985 8.51974C28.4835 9.30435 29.8097 10.7406 30.291 11.6523C31.0182 13.0297 31.3176 14.8733 31.1272 16.7994C31.015 17.9345 30.6775 19.5393 30.551 19.5393C30.5128 19.5393 30.4136 19.3481 30.3305 19.1144C30.1022 18.473 28.8185 15.9826 28.1415 14.868C27.8121 14.3256 27.3051 13.6015 27.0149 13.259C26.653 12.8316 26.5741 12.7665 26.7637 13.0513C28.4301 15.5555 29.7625 18.3781 30.5986 21.1746C30.8333 21.9595 31.047 22.6708 31.0735 22.7553C31.106 22.8589 31.2194 22.7402 31.4209 22.392L31.7201 21.8749L31.7893 23.6805C31.8273 24.6735 31.8742 25.5035 31.8935 25.5247C31.9128 25.546 32.4107 25.611 33.0001 25.6691C37.473 26.1103 41.5313 27.6136 44.9841 30.1085L46.1214 30.9304L45.7777 30.2436C43.2945 25.2801 30.5977 0.0560409 30.5545 0.000815519C30.5226 -0.0402921 29.7157 1.47789 28.7617 3.37455ZM18.7992 5.07501C18.7997 5.12287 18.8604 5.38124 18.9341 5.64907C19.1985 6.61176 19.4573 8.73413 19.596 11.079C19.7562 13.7839 19.778 13.9855 20.033 15.1138C20.3328 16.4398 20.9996 18.086 21.2369 18.086C21.2721 18.086 21.4487 17.7941 21.6293 17.4372C23.9664 12.8208 26.3205 8.12852 26.3679 7.99222C26.509 7.58622 22.983 5.99622 20.584 5.38384C19.2908 5.05384 18.7979 4.96851 18.7992 5.07501ZM26.2704 12.3766C26.3639 12.4908 26.4617 12.5842 26.4875 12.5842C26.5134 12.5842 26.4579 12.4908 26.3644 12.3766C26.2709 12.2624 26.1732 12.169 26.1473 12.169C26.1215 12.169 26.1769 12.2624 26.2704 12.3766ZM18.091 24.5885C15.2664 30.203 14.6483 31.4707 14.9122 31.1087C15.054 30.9143 16.4727 29.861 17.3996 29.2623C19.3925 27.9748 22.0133 26.8753 24.5786 26.2503C26.0427 25.8937 28.5771 25.5601 29.8218 25.5601H30.4739L30.4304 24.0809C30.3966 22.9315 30.3398 22.4396 30.1762 21.8749C30.0603 21.4753 29.9368 21.1147 29.9018 21.0736C29.8669 21.0325 29.6065 21.0692 29.3232 21.1553C29.0399 21.2413 28.3429 21.339 27.7742 21.3724C25.4985 21.5061 23.409 20.6717 21.8882 19.0218L21.2434 18.3222L18.091 24.5885ZM31.8629 29.8206V31.6934L31.2432 32.0005C30.9024 32.1694 30.6063 32.3076 30.5852 32.3076C30.5642 32.3076 30.547 31.3669 30.547 30.2171V28.1267L29.9553 28.1936C27.3105 28.4929 25.7272 29.9528 25.9854 31.8545C26.1092 32.7662 27.1884 33.6163 29.3721 34.5221C30.5725 35.02 31.8096 35.4093 34.8705 36.2524C39.3396 37.4831 41.0744 38.0937 42.6108 38.9765C44.4984 40.0612 45.6162 41.9819 45.6165 44.1416C45.6171 47.7569 42.5601 50.2637 36.9854 51.2193C35.24 51.5184 31.3141 51.5945 29.3675 51.3668C25.7556 50.9444 22.5722 49.9818 22.192 49.1972C22.0152 48.8323 22.0974 48.3971 22.3882 48.1583C22.6101 47.9761 22.8549 47.9406 24.3621 47.8718C28.3851 47.6883 30.3734 46.8673 30.9695 45.1437C31.1168 44.7178 31.1244 44.5792 31.0271 44.0992C30.7253 42.6098 29.6886 41.9691 21.5239 38.2261C20.8777 37.9298 19.63 37.2977 18.7511 36.8213C17.0798 35.9153 16.5535 35.4854 16.3019 34.8205C16.1272 34.3587 16.129 33.5927 16.306 33.0386L16.4455 32.6017L15.8125 32.9846C13.2937 34.5084 11.3711 37.1233 10.5931 40.0834C10.4186 40.7476 10.387 41.117 10.3925 42.4288C10.3982 43.8079 10.428 44.0927 10.6527 44.9202C11.4835 47.9805 13.4985 50.7244 16.5592 52.9638C23.8655 58.3097 33.9147 59.0085 41.8729 54.7239C44.1817 53.481 45.9496 52.0759 47.5136 50.2409C49.5593 47.8409 50.5765 45.2344 50.5826 42.3769C50.5857 40.9528 50.4112 40.0112 49.9015 38.7014C49.0718 36.5694 47.7585 34.7327 45.8432 33.026C43.7673 31.1761 41.7639 29.947 39.4624 29.1115C37.1089 28.257 35.4438 27.9501 33.1552 27.9485L31.8629 27.9477V29.8206ZM4.51156 51.4074C2.05605 56.2853 0.0328967 60.3132 0.0156965 60.3576C-0.00159786 60.4025 5.72948 60.4341 12.7514 60.4282C20.7741 60.4212 25.3613 60.3815 25.0956 60.3219C20.2746 59.2357 16.2772 57.0392 13.3578 53.8722C10.6382 50.9222 9.18629 47.5855 9.03442 43.9369L8.9761 42.5385L4.51156 51.4074ZM51.941 43.6701C51.8199 45.7388 51.3694 47.5679 50.5221 49.4312C49.2798 52.163 47.0125 54.8212 44.2812 56.7477C42.136 58.2609 39.1539 59.5773 36.4092 60.2227C35.576 60.4183 35.5829 60.4183 48.2508 60.4288C59.4576 60.4382 60.9201 60.4212 60.8722 60.284C60.8428 60.1987 59.5192 57.548 57.9316 54.3932C54.8311 48.233 52.3594 43.3026 52.1411 42.8427C52.0138 42.5741 52.0025 42.6206 51.941 43.6701ZM0 68.1732V73H5.49847H10.9969V70.8199V68.6399H8.45918H5.92142V70.0934V71.5464H5.26346H4.60555V68.4325V65.3181H5.26346H5.92142V66.5637V67.8094H8.45918H10.9969V65.5779V63.3459H5.49847H0V68.1732ZM12.5008 68.1732V73L14.8271 72.9982L17.1533 72.9965L17.95 70.706C18.3881 69.4464 18.7794 68.3934 18.8194 68.366C18.8594 68.3385 18.8921 69.3704 18.8921 70.6582V73H21.1949H23.4977V68.1732V63.3459H21.2116H18.9256L18.1019 65.6036C17.6488 66.8452 17.2395 67.9058 17.1922 67.9601C17.1403 68.0196 17.1063 67.1285 17.1063 65.7023V63.3459H14.8035H12.5008V68.1732ZM25.0015 68.1732V73H30.5H35.9985V69.6794V66.3593L32.9203 66.3319L29.842 66.3044L29.8132 65.8635L29.7843 65.422H32.8914H35.9985V64.3842V63.3459H30.5H25.0015V68.1732ZM37.5023 66.2525V69.159H40.651H43.7997V70.3527V71.5464H43.1887H42.5778V70.8199V70.0934H40.0401H37.5023V71.5464V73H43.0008H48.4992V68.1732V63.3459H46.1494H43.7997V65.3181V67.2908H43.1887H42.5778V65.3181V63.3459H40.0401H37.5023V66.2525ZM49.9091 68.1732V73H52.3998H54.8905V71.5464V70.0934H57.9453H61V66.7197V63.3459H55.4548H49.9091V68.1732ZM56.1126 66.7197V68.1213H55.5016H54.8905V66.7197V65.3181H55.5016H56.1126V66.7197ZM31.1109 69.9375V71.5464H30.453H29.7951V69.9375V68.3286H30.453H31.1109V69.9375Z" fill="#333333"/>
</g>
<defs>
<clipPath id="clip0_112_518">
<rect width="61" height="73" fill="white"/>
</clipPath>
</defs>
</svg>
