<svg width="118" height="73" viewBox="0 0 118 73" fill="none" xmlns="http://www.w3.org/2000/svg">
<g clip-path="url(#clip0_112_520)">
<path fill-rule="evenodd" clip-rule="evenodd" d="M84.1182 0.0535967C82.9903 0.175442 81.56 0.494709 80.6088 0.836884C77.7686 1.85915 75.7136 3.40776 74.3104 5.5839C74.0652 5.9648 73.8082 6.25312 73.7393 6.22445C73.6708 6.19595 73.2264 5.8734 72.7508 5.50787C69.2425 2.80875 65.0241 1.02274 60.581 0.355458C58.8222 0.0912173 55.0309 0.0893082 53.2864 0.35164C50.8473 0.718524 48.1747 1.51742 46.0421 2.51734C41.7397 4.53446 38.1856 7.53722 35.3031 11.5906C34.8341 12.2502 34.7885 12.3536 34.9982 12.2848C36.5876 11.763 36.7157 11.7405 38.3188 11.7034L39.9481 11.6658L41.0541 10.4099C43.0995 8.08729 45.4063 6.2248 47.992 4.80859C51.9624 2.6339 56.8178 1.54662 61.0489 1.88453C63.0902 2.04759 64.2283 2.25006 66.1454 2.79146C67.9557 3.30265 69.5638 3.9578 71.2102 4.85553C72.3284 5.46509 73.6933 6.34487 73.6933 6.45612C73.6933 6.48713 73.3286 7.15219 72.8831 7.93411C71.9907 9.49923 70.7055 11.9293 68.6852 15.869C67.9568 17.2896 67.2299 18.6941 67.0695 18.9902C66.9091 19.2864 66.7778 19.5452 66.7778 19.5655C66.7778 19.5858 66.3211 20.4554 65.7628 21.4977C60.2908 31.7172 56.8397 36.1654 53.5659 37.2193L53.1015 37.3688L53.6691 37.3022C56.2048 37.005 59.094 34.4119 62.66 29.2326C63.3864 28.1781 63.7404 27.6345 65.1462 25.4145C65.914 24.2017 67.6155 21.2957 70.4383 16.3743C73.9247 10.2969 75.758 7.44828 76.89 6.35147C78.3745 4.91269 80.6231 3.79261 83.1798 3.21809C84.3158 2.96294 88.593 2.78079 88.7764 2.9799C88.8433 3.05312 88.2047 4.3102 86.8991 6.67255C85.8105 8.64227 84.8946 10.3045 84.864 10.3663C84.6596 10.7756 85.1689 9.99066 86.6932 7.54621C87.652 6.00895 89.0026 3.84966 89.6948 2.74755C90.3865 1.64544 90.9131 0.704035 90.8646 0.655522C90.7384 0.52941 89.1922 0.221035 88.0408 0.0922276C87.1177 -0.0110879 84.9176 -0.0327617 84.1182 0.0535967ZM36.1873 13.8147C34.41 14.2575 33.0148 15.3712 32.3646 16.8662C31.9224 17.883 31.2283 20.1753 30.9667 21.484C30.6493 23.07 30.3417 25.8349 30.3417 27.0989C30.3417 29.2491 30.8341 32.5744 31.4893 34.8476C32.7282 39.1462 34.6463 42.5839 37.7152 46.0062C41.3894 50.1035 45.653 52.6503 51.0178 53.9528C54.115 54.7047 58.3753 54.8125 61.5623 54.2198C65.8511 53.4221 70.6575 51.0968 74.0432 48.1815C74.882 47.4595 77.4841 44.7174 77.408 44.6359C77.3804 44.6061 76.9626 44.756 76.4803 44.9691C74.9693 45.636 73.5196 46.0371 70.5451 46.611C69.5786 46.7975 64.406 46.7962 63.4232 46.6091C60.698 46.0906 60.2908 46.0009 58.9847 45.6303C55.7154 44.7029 52.0886 42.9248 49.2306 40.8486C47.0613 39.2725 44.7641 37.039 43.1164 34.9038C40.9305 32.071 39.2134 28.468 38.4865 25.1889C38.2054 23.9204 38.1739 21.6722 38.4204 20.4581C38.9267 17.9645 40.4256 15.4267 41.7761 14.7767L42.2626 14.5425L41.6953 14.3323C39.8848 13.6613 37.6471 13.4509 36.1873 13.8147ZM83.5476 18.0655C81.7771 18.214 80.428 18.5527 79.4222 19.1008C77.9985 19.8767 75.3576 22.6356 72.1961 26.6491C70.4884 28.8171 69.6772 29.8027 65.516 34.7645C62.681 38.1459 61.1373 39.2171 58.3528 39.735C56.6272 40.056 54.3316 40.0292 52.5851 39.6677C52.1182 39.571 54.8092 41.3085 56.6109 42.267C63.0682 45.7025 71.5397 46.4675 76.9779 44.1061C78.0573 43.6375 79.1555 42.9822 79.9197 42.3507C81.5538 41.0008 84.8481 37.7546 88.9521 33.4512L91.4633 30.8177L90.9647 30.5409C90.3854 30.2193 89.0665 29.717 87.9463 29.3917C86.5865 28.9968 85.5495 28.8399 84.2975 28.8397L83.0837 28.8396L85.3365 25.7794C88.2671 21.7986 90.5418 18.6086 90.4896 18.5522C90.4089 18.464 88.099 18.1722 86.6125 18.0621C84.9631 17.94 85.0427 17.9399 83.5476 18.0655ZM0.381145 56.0441C-0.0283219 56.3825 -0.133398 57.5253 0.191637 58.1053C0.448031 58.5629 0.650854 58.5991 2.95014 58.5991H4.84678V63.8148V69.03L5.09584 69.3453C5.34244 69.6572 5.35761 69.6607 6.55007 69.6607C7.69197 69.6607 7.76547 69.6467 7.95243 69.3956C8.14047 69.1427 8.14976 68.8816 8.14976 63.8709V58.6114L10.3264 58.577L12.5032 58.5431L12.7627 58.2143C12.9958 57.9193 13.0183 57.8086 12.9829 57.1276C12.9133 55.7882 13.5206 55.9038 6.5536 55.9038C1.91105 55.9038 0.512544 55.9356 0.381145 56.0441ZM88.5603 56.121C88.5015 56.2405 88.4535 56.9658 88.4535 57.7329V59.1277L87.672 59.1995C84.7281 59.4699 83.1067 61.3112 83.1067 64.3825C83.1067 67.2038 84.5329 69.0685 87.0084 69.4826C87.4344 69.5538 87.9335 69.6379 88.1179 69.6694L88.4535 69.7267V71.1254C88.4535 72.9749 88.4382 72.9568 90.0018 72.9568C91.5654 72.9568 91.5501 72.9749 91.5501 71.1254V69.7267L91.8857 69.6689C92.0701 69.6373 92.4068 69.5865 92.6341 69.5567C93.929 69.3856 95.0247 68.8413 95.7327 68.0179C96.6522 66.948 97.0675 65.2316 96.8361 63.4522C96.502 60.8808 94.9788 59.443 92.3317 59.1995L91.5501 59.1277V57.7329C91.5501 56.9658 91.5021 56.2405 91.4434 56.121C91.3458 55.9234 91.2155 55.9038 90.0018 55.9038C88.7881 55.9038 88.6578 55.9234 88.5603 56.121ZM17.3635 59.102C17.0663 59.1931 16.5785 59.4074 16.2798 59.5785C15.9808 59.749 15.7014 59.9061 15.6589 59.9272C15.6164 59.9482 15.5815 59.8361 15.5815 59.6778C15.5815 59.1715 15.2122 59.0208 14.0791 59.0652C13.2416 59.0985 13.0646 59.1382 12.9409 59.3221C12.8186 59.5043 12.7946 60.6052 12.7946 66.0323C12.7946 73.7791 12.6173 72.9936 14.3598 72.9655C15.9271 72.9398 15.8911 72.9872 15.8911 70.9496V69.3757L16.175 69.4493C16.331 69.4902 16.5482 69.5731 16.6574 69.6344C16.9597 69.8032 18.9623 69.8703 19.6318 69.7331C21.2047 69.4119 22.3946 68.2568 22.8989 66.5608C23.3604 65.0085 23.2496 62.8477 22.6362 61.4368C22.2695 60.5935 21.5038 59.7823 20.6763 59.3613C20.0724 59.0535 19.8553 59.005 18.9448 58.9735C18.2478 58.949 17.7253 58.9916 17.3635 59.102ZM27.8616 59.0477C26.1312 59.3467 25.2022 60.1029 25.023 61.3574C24.9356 61.9694 25.1079 62.1808 25.764 62.2649C26.7276 62.3893 27.4011 62.2281 27.9051 61.7539C28.4454 61.2452 29.1074 61.0233 29.8798 61.0934C30.7475 61.1717 31.2978 61.7107 31.4142 62.5978L31.4748 63.0586L29.3858 63.124C27.0511 63.1964 26.3655 63.3506 25.4911 64C24.3115 64.876 23.9662 66.458 24.6367 67.9157C25.1871 69.1117 26.2874 69.7068 28.1225 69.7997C29.4375 69.8663 30.2634 69.6881 31.1409 69.1497C31.6514 68.8361 31.6835 68.8297 31.6835 69.0416C31.6835 69.166 31.7764 69.3687 31.8899 69.4919C32.0668 69.6846 32.234 69.7168 33.0539 69.7168C33.7583 69.7168 34.073 69.67 34.2436 69.5398L34.4757 69.3628L34.4675 65.7631C34.4602 62.5125 34.4404 62.109 34.2634 61.6021C33.8534 60.4282 33.2111 59.7625 32.004 59.2608C31.53 59.064 31.155 59.0138 29.9288 58.9846C29.1056 58.9647 28.1754 58.9933 27.8616 59.0477ZM52.1723 59.0366C50.5585 59.3811 49.4827 60.2437 48.8684 61.6873C48.4548 62.6591 48.386 63.0638 48.3918 64.4905C48.4029 67.1588 49.3063 68.6895 51.355 69.5118C51.8929 69.7273 52.182 69.7576 53.7722 69.7646C55.2475 69.7711 55.6919 69.7349 56.1976 69.5667C57.7725 69.0416 58.5387 68.2071 58.6894 66.8528C58.7747 66.0884 58.599 65.9546 57.512 65.9546C56.4714 65.9546 56.2084 66.0615 55.8513 66.6286C55.4717 67.2312 54.8153 67.5168 53.8249 67.5098C52.8788 67.5034 52.5253 67.3527 52.038 66.7489C51.6314 66.2455 51.5507 65.8127 51.5634 64.2137C51.5742 62.8542 51.686 62.3817 52.1156 61.8847C52.5141 61.424 52.9396 61.2645 53.7707 61.2645C54.6948 61.2645 55.2536 61.5186 55.7031 62.144C56.1333 62.742 56.4275 62.8664 57.4154 62.8664C58.5055 62.8664 58.6884 62.7134 58.5857 61.8859C58.4309 60.6391 57.7204 59.8285 56.3253 59.307C55.695 59.0716 55.3446 59.022 54.0818 58.9881C53.2589 58.9665 52.3997 58.9881 52.1723 59.0366ZM75.7575 59.0062C73.0732 59.5733 71.6505 61.7638 71.8758 64.9834C72.0086 66.8826 72.6206 68.1236 73.8481 68.9844C74.8186 69.6654 75.2927 69.7728 77.3058 69.7716C78.8781 69.7705 79.2066 69.7378 79.841 69.5223C80.7641 69.2075 81.3464 68.7502 81.6274 68.1189C81.8705 67.5729 81.9155 66.9153 81.7239 66.7068C81.6437 66.6198 81.2284 66.5725 80.548 66.5725H79.4962L79.014 67.0058C78.4414 67.5203 77.9617 67.6961 77.1393 67.6926C76.4522 67.6897 75.8372 67.431 75.4597 66.9848C75.2436 66.7296 74.8723 65.589 74.9704 65.4822C74.9908 65.46 76.5401 65.4425 78.4138 65.443C82.5361 65.4436 82.2184 65.5803 82.128 63.8423C82.0335 62.0278 81.5125 60.8429 80.4351 59.9926C79.5029 59.2567 78.7974 59.0301 77.3058 58.9881C76.5963 58.9676 75.8995 58.9758 75.7575 59.0062ZM36.9207 59.2719L36.638 59.5137V64.3907C36.638 70.2488 36.4855 69.7168 38.1632 69.7168C39.8062 69.7168 39.7345 69.8219 39.7345 67.4082V65.4495H41.6957H43.6568V67.4082C43.6568 69.8149 43.5919 69.7168 45.1832 69.7168C45.7704 69.7168 46.3407 69.6642 46.4505 69.6005C46.6434 69.4878 46.6501 69.312 46.6501 64.4374V59.3905L46.3957 59.2088C46.0687 58.9758 44.0976 59.0138 43.8272 59.2585C43.6812 59.3905 43.6568 59.6836 43.6568 61.3077V63.2034H41.6957H39.7345V61.3077C39.7345 59.6836 39.7102 59.3905 39.5642 59.2585C39.4502 59.1551 39.0313 59.092 38.2987 59.0669C37.3043 59.0331 37.1774 59.0517 36.9207 59.2719ZM60.5846 59.1259C60.1795 59.2836 60.1718 59.3811 60.1718 64.4537V69.3669L60.4012 69.5415C60.7138 69.7804 62.7208 69.7921 63.0166 69.5573C63.1995 69.4113 63.2189 69.2326 63.2393 67.452L63.2618 65.5055H65.184H67.1062L67.0924 67.3819C67.0746 69.7862 67.0296 69.7168 68.6126 69.7168C69.4524 69.7168 69.7814 69.6735 69.9546 69.5415L70.1839 69.3669V64.3901C70.1839 59.9009 70.1671 59.3975 70.0138 59.2585C69.8994 59.1551 69.4805 59.092 68.748 59.0669C67.7488 59.0331 67.6278 59.0512 67.3657 59.2754L67.0787 59.5213L67.093 61.334L67.1067 63.1473H65.1769H63.2475L63.2623 61.5022C63.2802 59.5966 63.2403 59.3461 62.894 59.1744C62.6401 59.0488 60.8788 59.0114 60.5846 59.1259ZM97.3561 59.2199C97.1487 59.3788 97.1237 59.4927 97.1237 60.2758C97.1237 60.8662 97.1687 61.1944 97.2601 61.2774C97.3413 61.351 98.0156 61.4129 98.9371 61.4315L100.478 61.4625L100.53 65.4816C100.574 68.8898 100.605 69.5164 100.737 69.607C100.822 69.6654 101.38 69.7138 101.978 69.715C102.796 69.7162 103.121 69.6735 103.294 69.5415L103.523 69.3669V65.387V61.4064H105.064C106.924 61.4064 106.929 61.4035 106.929 60.2968C106.929 59.0039 107.345 59.109 102.112 59.0734C98.1229 59.0459 97.561 59.0634 97.3561 59.2199ZM108.566 59.1189C108.189 59.2375 108.161 59.6509 108.191 64.5916C108.219 69.2484 108.226 69.4031 108.426 69.5649C108.602 69.7068 109.114 69.7243 111.832 69.6829C113.592 69.6566 115.195 69.5982 115.393 69.5538C116.465 69.315 117.305 68.6031 117.671 67.6225C117.862 67.1086 117.889 66.8622 117.851 65.9266C117.802 64.723 117.616 64.1717 117.081 63.6449C116.227 62.8063 115.583 62.6416 113.153 62.6416H111.265V61.0911C111.265 59.0512 111.306 59.1101 109.854 59.0844C109.239 59.0739 108.659 59.0891 108.566 59.1189ZM77.8545 61.2324C78.0716 61.3165 78.3351 61.4701 78.4409 61.5746C78.706 61.8357 78.9813 62.4985 79.035 63.0048L79.0799 63.4277H76.9927H74.9055L74.976 62.9505C75.1108 62.0301 75.5404 61.4771 76.3772 61.1483C76.6673 61.0338 77.4601 61.0794 77.8545 61.2324ZM19.0044 61.4759C19.7434 61.8812 20.0508 62.8366 20.0029 64.5805C19.9734 65.6556 19.93 65.9254 19.7102 66.4037C19.2539 67.3965 18.4653 67.7049 17.0098 67.4613C15.7862 67.2558 15.8831 67.5116 15.915 64.574L15.9427 62.0243L16.6136 61.6646C17.536 61.1705 18.332 61.1074 19.0044 61.4759ZM88.5567 64.3953V67.6085L88.0678 67.5285C87.1504 67.379 86.6432 66.8995 86.3356 65.8927C86.0838 65.0664 86.1558 63.1059 86.4618 62.4734C86.7949 61.7837 87.227 61.4397 87.9892 61.2575C88.5981 61.1115 88.5567 60.8832 88.5567 64.3953ZM92.5513 61.4187C92.9973 61.5723 93.4509 62.161 93.6659 62.8653C93.9055 63.6502 93.8498 65.6544 93.572 66.2355C93.1807 67.0531 92.7465 67.3965 91.9358 67.5285L91.4469 67.6085V64.3825V61.1571L91.8341 61.2312C92.0466 61.2721 92.3695 61.3562 92.5513 61.4187ZM114.146 64.8736C114.575 65.0045 114.827 65.4997 114.82 66.2028C114.815 66.7594 114.779 66.861 114.483 67.1483C114.151 67.4707 114.151 67.4707 112.708 67.4707H111.265V66.1228V64.7755L112.581 64.7866C113.305 64.793 114.009 64.8322 114.146 64.8736ZM31.456 66.0948L31.4255 66.8528L30.9094 67.122C29.0691 68.0821 27.3484 67.7843 27.3484 66.5065C27.3484 66.1146 27.6721 65.5943 28.0077 65.4471C28.1276 65.3946 28.9594 65.3478 29.8561 65.3438L31.4865 65.3368L31.456 66.0948Z" fill="#333333"/>
<path d="M84.3383 28.3752C86.6789 28.3752 90.4682 29.898 92.0706 30.6593C92.0706 30.6593 80.5766 48.0143 67.8285 45.7344C63.5386 44.9671 59.26 43.8309 58.2148 42.9934C69.7094 42.9934 76.3965 28.3752 84.3383 28.3752Z" fill="#333333"/>
</g>
<defs>
<clipPath id="clip0_112_520">
<rect width="118" height="73" fill="white"/>
</clipPath>
</defs>
</svg>
