<svg width="130" height="71" viewBox="0 0 130 71" fill="none" xmlns="http://www.w3.org/2000/svg">
<g clip-path="url(#clip0_112_542)">
<path fill-rule="evenodd" clip-rule="evenodd" d="M40.1538 46.4195H48.4027V49.4823H44.4783V71H40.1538V46.4195Z" fill="#333333"/>
<path fill-rule="evenodd" clip-rule="evenodd" d="M53.2957 61.7711L54.0373 49.4823H54.2845L55.026 61.7711H53.2957ZM48.5049 71H52.7402L53.1403 64.472H55.1789L55.5816 71H59.8143L57.5591 46.4195H50.7601L48.5049 71Z" fill="#333333"/>
<path fill-rule="evenodd" clip-rule="evenodd" d="M66.0116 62.3964V67.0311C66.0116 67.6564 66.4372 67.8359 66.6844 67.8359C67.0921 67.8359 67.375 67.4537 67.375 67.0311V61.3079C67.375 60.5436 67.2501 59.6954 65.637 59.6954H63.8812V56.9945H65.7084C66.9316 56.9945 67.375 56.6732 67.375 55.1621V50.2871C67.375 49.8644 67.0921 49.4823 66.6844 49.4823C66.4372 49.4823 66.0116 49.6444 66.0116 50.2871V54.2965H61.6846V50.811C61.6846 49.0973 61.863 46.4195 64.8955 46.4195H68.4784C71.5109 46.4195 71.7071 49.1002 71.7071 50.811V54.7394C71.7071 57.4201 70.0583 58.1438 68.7638 58.083V58.3262C71.6714 58.2451 71.7071 60.7839 71.7071 61.6495V66.6055C71.7071 68.3396 71.5109 70.9971 68.4784 70.9971H64.8955C61.863 70.9971 61.6846 68.3367 61.6846 66.6055V62.3935H66.0116V62.3964Z" fill="#333333"/>
<path fill-rule="evenodd" clip-rule="evenodd" d="M74.541 46.4195H84.561V71H80.234V49.4823H78.8681V71H74.541V46.4195Z" fill="#333333"/>
<path fill-rule="evenodd" clip-rule="evenodd" d="M91.727 59.9387V49.4823H92.2952C92.7565 49.4823 93.0928 49.9252 93.0928 50.7126V58.7112C93.0928 59.4957 92.7565 59.9415 92.2952 59.9415H91.727V59.9387ZM87.3999 71H91.727V62.6396H94.209C97.2237 62.6396 97.4199 59.9792 97.4199 58.248V50.814C97.4199 49.1002 97.2237 46.4224 94.209 46.4224H87.3999V71Z" fill="#333333"/>
<path fill-rule="evenodd" clip-rule="evenodd" d="M105.952 67.0311C105.952 67.4537 105.669 67.8359 105.261 67.8359C105.014 67.8359 104.588 67.6535 104.588 67.0311V50.29C104.588 49.6444 105.014 49.4852 105.261 49.4852C105.669 49.4852 105.952 49.8673 105.952 50.29V67.0311ZM100.259 66.6055C100.259 68.3396 100.455 70.9971 103.47 70.9971H107.07C110.085 70.9971 110.281 68.3367 110.281 66.6055V50.811C110.281 49.0973 110.085 46.4195 107.07 46.4195H103.47C100.455 46.4195 100.259 49.1002 100.259 50.811V66.6055Z" fill="#333333"/>
<path fill-rule="evenodd" clip-rule="evenodd" d="M124.36 46.4195H130V71H125.673V55.5876H125.512L123.277 71H119.819L117.602 55.5876H117.442V71H113.115V46.4195H118.736L121.557 63.7049L124.36 46.4195Z" fill="#333333"/>
<path fill-rule="evenodd" clip-rule="evenodd" d="M34.5451 12.8128C33.22 6.2269 29.8995 0.865571 29.4434 0C28.7196 1.23033 26.0719 5.96347 24.7264 11.2032C23.256 17.0654 23.0394 22.2646 23.5465 27.3625C24.0511 32.4806 25.9522 37.7378 25.9522 37.7378C26.9638 40.4763 28.4775 43.4407 29.4637 44.891C30.9086 42.7546 34.2316 36.3887 35.2663 28.0891C35.8422 23.4515 35.8677 19.4015 34.5451 12.8128ZM29.4434 43.2351C28.7935 41.8456 27.7818 39.2055 27.685 35.0947C27.6595 31.1461 29.056 27.7417 29.4637 27.0354C29.8282 27.7417 31.031 30.7032 31.1737 34.7531C31.2705 38.7017 30.1136 41.8253 29.4434 43.2351ZM34.1603 23.9957C34.1119 26.5143 33.8469 29.1747 33.5105 30.764C33.6302 28.0225 33.3423 24.1752 32.7893 21.1529C32.2363 18.1509 30.6691 13.1138 29.4204 10.7979C28.266 13.0154 26.8441 17.3664 26.0974 21.1327C25.3482 24.8989 25.3278 29.4728 25.3278 30.845C25.129 29.6958 24.6321 25.5676 24.7723 21.4366C24.8895 18.0323 25.5928 14.5063 25.9776 12.8938C27.4455 7.51513 29.107 4.07021 29.4204 3.52597C29.7313 4.07021 31.826 8.31991 32.9116 12.7722C33.987 17.2246 34.2062 21.4974 34.1603 23.9957Z" fill="#333333"/>
<path fill-rule="evenodd" clip-rule="evenodd" d="M31.6884 46.4195H21.6174V54.0968C21.625 54.0968 21.6327 54.0765 21.6429 54.0765C24.0154 51.3756 27.8633 51.3756 30.2384 54.0765C32.6108 56.7572 32.6108 61.1285 30.2384 63.8265C30.2282 63.8468 30.218 63.8468 30.2052 63.867C30.1925 63.867 30.1798 63.8873 30.1696 63.9075C27.8022 66.5679 24.7085 67.8967 21.6148 67.8967C18.5084 67.8967 15.3995 66.5679 13.0321 63.867C8.85286 59.1339 8.35849 51.778 11.5439 46.4195C11.972 45.6929 12.4689 45.0097 13.0321 44.3642C15.402 41.6632 18.5084 40.3345 21.6148 40.3345V21.8796C9.67852 21.8796 0 32.8599 0 46.4195C0 59.9792 9.67852 70.9798 21.6174 70.9798C27.8429 70.9798 33.4492 67.9778 37.394 63.2041V46.4224H31.6884V46.4195Z" fill="#333333"/>
</g>
<defs>
<clipPath id="clip0_112_542">
<rect width="130" height="71" fill="white"/>
</clipPath>
</defs>
</svg>
