<svg width="57" height="73" viewBox="0 0 57 73" fill="none" xmlns="http://www.w3.org/2000/svg">
<g clip-path="url(#clip0_112_501)">
<path fill-rule="evenodd" clip-rule="evenodd" d="M0 25.7858V51.5716H7.09475H14.1895L14.5123 49.2182C14.6899 47.9237 15.0197 45.5447 15.2452 43.9314C15.4708 42.3181 15.9513 38.88 16.3131 36.2912C16.6748 33.7023 17.4274 28.3303 17.9856 24.3533C18.5437 20.3762 19.1815 15.8026 19.4027 14.1896L19.805 11.2568L17.4731 5.62841L15.1411 0H7.57063H0V25.7858ZM22.767 0.170541C22.7398 0.264407 22.4764 2.02944 22.1817 4.09299C21.887 6.15653 20.5672 15.1937 19.2487 24.1758L16.8516 40.5065L18.1623 43.2764C18.8834 44.7996 20.0524 47.2868 20.7602 48.8031L22.0472 51.5602L28.0672 51.6C32.0041 51.6261 34.1018 51.5927 34.1295 51.5034C34.1733 51.3623 34.3237 50.3016 36.0247 38.133C37.9591 24.2953 38.9497 17.2406 39.3659 14.337L39.7848 11.4153L37.2493 5.71053L34.7138 0.00586651L28.7652 0.00286508C24.1103 0.000682153 22.8056 0.0371098 22.767 0.170541ZM42.5402 0.0341082C42.5398 0.052936 42.4857 0.436586 42.4201 0.886816C42.3543 1.33704 42.0023 3.85423 41.6378 6.48059C41.2734 9.1069 40.7377 12.9133 40.4474 14.9394C40.1572 16.9654 39.5415 21.3245 39.0794 24.6261C38.6173 27.9278 37.917 32.9163 37.5231 35.7118L36.807 40.7945L39.3246 45.8588C40.7093 48.644 41.9006 51.0689 41.9718 51.2472L42.1012 51.5716H49.5507H57V25.7858V0H49.7705C45.7942 0 42.5405 0.0152805 42.5402 0.0341082ZM1.7388 59.655C1.71347 59.749 1.52131 61.1763 1.31172 62.8273C1.10224 64.4783 0.721404 67.4216 0.465441 69.3687C0.209479 71.3152 0 72.927 0 72.9498C0 72.9725 0.672169 72.9918 1.49371 72.9918C2.31525 72.9918 2.98742 72.9679 2.98742 72.9398C2.98742 72.9112 3.17324 71.453 3.4004 69.6992C4.12216 64.1267 4.66038 59.8378 4.66038 59.6585C4.66038 59.4115 1.8056 59.408 1.7388 59.655ZM5.25786 59.537C5.25786 59.6229 4.63074 64.4654 4.06325 68.7619C3.8006 70.7504 3.58562 72.5159 3.58538 72.6846C3.5849 72.9901 3.5959 72.9918 5.43713 72.9918C6.65647 72.9918 7.28932 72.9428 7.28932 72.8476C7.28932 72.6794 7.20377 72.4627 5.68244 68.7695C5.05053 67.2353 4.55964 65.9015 4.59167 65.8063C4.62369 65.7111 5.57475 64.3264 6.70495 62.7292C7.83519 61.1325 8.80825 59.7543 8.86725 59.6673C8.94766 59.5476 8.5101 59.5043 7.11617 59.4921C6.09412 59.4833 5.25786 59.5038 5.25786 59.537ZM9.50154 59.655C9.47371 59.749 9.34251 60.6852 9.20986 61.7358C9.07733 62.7864 8.69856 65.6328 8.36811 68.0605C8.03762 70.4888 7.7673 72.5912 7.7673 72.7331C7.7673 72.972 7.87375 72.9918 9.18465 72.9918H10.6021L10.8029 71.4565C11.1051 69.1468 12.0483 62.168 12.2367 60.8493C12.3278 60.211 12.378 59.6433 12.3482 59.5873C12.2499 59.401 9.55798 59.4658 9.50154 59.655ZM12.9774 59.8431C12.8031 60.7745 11.9509 66.6753 11.9503 66.9544C11.9497 67.2377 12.003 67.261 12.6368 67.2587C14.3363 67.2511 15.1733 66.1579 15.6115 63.3733C15.9868 60.9883 15.3827 59.7636 13.721 59.5406C13.0554 59.4512 13.0503 59.4535 12.9774 59.8431ZM24.4326 59.8074C21.9897 61.1063 20.5304 67.129 21.754 70.8626C22.077 71.8484 22.7537 72.7033 23.3253 72.8482C23.7391 72.9527 23.7712 72.9369 23.8318 72.6005C24.0003 71.6632 25.5723 59.999 25.5723 59.6848C25.5723 59.3916 25.124 59.4401 24.4326 59.8074ZM26.2371 59.655C26.2125 59.749 26.1031 60.6239 25.9941 61.5997C25.8848 62.575 25.7659 63.5742 25.7297 63.8207L25.6639 64.268L27.2612 64.2301L28.8585 64.1915L28.8941 63.2595C28.9599 61.5361 28.4283 60.2595 27.4294 59.7414C26.8692 59.4506 26.3015 59.4097 26.2371 59.655ZM32.8405 59.5925L31.8036 59.6317L31.4065 60.7518L31.0094 61.8725L30.9758 67.4321L30.9421 72.9918H32.5153H34.0886L34.0311 66.3044C33.9994 62.6264 33.9519 59.603 33.9254 59.5849C33.899 59.5674 33.4107 59.5709 32.8405 59.5925ZM17.4465 63.5193C17.4465 67.1588 17.4327 67.4146 17.2374 67.372C17.0493 67.3311 17.0223 67.0601 16.9685 64.6739L16.9088 62.0214L15.2038 67.4041C14.266 70.365 13.4998 72.833 13.501 72.889C13.5022 72.9457 14.2829 72.9918 15.2358 72.9918H16.9685V70.6628C16.9685 68.3479 16.9701 68.3344 17.2289 68.3776C17.4841 68.4203 17.4891 68.4635 17.4777 70.5198C17.4715 71.6743 17.4945 72.7027 17.529 72.8049C17.5773 72.9492 17.9306 72.9918 19.0726 72.9918H20.5535V66.3062V59.6211H19H17.4465V63.5193ZM34.9303 60.8148L34.5943 62.0085L34.5605 67.4999L34.5269 72.9918H36.0244H37.522V66.3062V59.6211H36.3941H35.2661L34.9303 60.8148ZM41.9154 63.4738C41.8862 67.0175 41.8669 67.3294 41.6745 67.372C41.4811 67.4146 41.465 67.2108 41.4604 64.6453L41.4555 61.8725L40.6745 64.2598C40.2449 65.5733 39.6072 67.5682 39.2573 68.6942C38.9076 69.8195 38.4816 71.1621 38.3107 71.6778C37.9191 72.8587 37.9206 72.9574 38.3286 72.9159C38.5093 72.8972 39.2891 72.8762 40.0613 72.8686L41.4654 72.8552V70.6039C41.4654 68.4436 41.4751 68.3531 41.7044 68.3531C41.9337 68.3531 41.9434 68.4436 41.9434 70.6039V72.8552H43.5115H45.0797L45.0351 66.2384L44.9906 59.6217L43.4689 59.6211H41.9471L41.9154 63.4738ZM46.7891 59.9283C46.7572 60.0971 46.4604 62.1528 46.1296 64.4964C45.3837 69.7822 45.3641 70.9729 46.0063 71.9885C46.3052 72.4615 46.9855 72.854 47.5063 72.8546L47.9907 72.8552L48.86 66.4259C49.3382 62.8904 49.7579 59.9126 49.7925 59.8092C49.8442 59.6556 49.5801 59.6211 48.3515 59.6211C46.8885 59.6211 46.8458 59.6299 46.7891 59.9283ZM49.9604 62.5884C49.4548 66.3512 48.6612 71.9891 48.568 72.4802L48.4967 72.8552H49.9211H51.3454L51.6014 71.0477C51.7421 70.0531 52.1529 67.1524 52.515 64.6009C52.8765 62.0494 53.1733 59.8857 53.1743 59.7917C53.1759 59.6649 52.8159 59.6211 51.7678 59.6211H50.3592L49.9604 62.5884ZM53.7726 59.7917C53.7721 59.8857 53.6375 60.9141 53.4732 62.0769C53.3094 63.2402 52.9325 65.9721 52.6362 68.1481C52.3399 70.3241 52.0667 72.2735 52.0297 72.4802L51.9619 72.8552H53.4034C54.8006 72.8552 54.8463 72.8458 54.9044 72.548C54.9377 72.3792 55.2048 70.6144 55.4985 68.6258C56.3694 62.7251 56.7674 60.1135 56.8341 59.86C56.8911 59.641 56.7664 59.6211 55.3352 59.6211C54.1659 59.6211 53.7736 59.6638 53.7726 59.7917ZM30.2731 64.1232C30.1968 64.386 29.5648 66.4399 28.869 68.6877C28.1732 70.9356 27.6038 72.8236 27.6038 72.8832C27.6038 73.0753 30.3523 73.0134 30.4173 72.8201C30.4491 72.7255 30.4608 70.6231 30.4435 68.147C30.418 64.5086 30.3853 63.7378 30.2731 64.1232ZM24.8092 70.2786C24.6303 71.7123 24.511 72.9165 24.5437 72.9544C24.5766 72.9918 24.8732 72.9486 25.2028 72.8581C25.9092 72.6648 26.6832 71.9459 27.224 70.9811C27.5476 70.4041 28.1528 68.8261 28.3757 67.9776L28.4564 67.671H26.7954H25.1344L24.8092 70.2786Z" fill="#333333"/>
</g>
<defs>
<clipPath id="clip0_112_501">
<rect width="57" height="73" fill="white"/>
</clipPath>
</defs>
</svg>
