<svg width="72" height="15" viewBox="0 0 72 15" fill="none" xmlns="http://www.w3.org/2000/svg">
<g clip-path="url(#clip0_34_317)">
<path fill-rule="evenodd" clip-rule="evenodd" d="M47.4526 7.89932C47.4952 8.17932 47.5166 8.3947 47.5805 8.61009C48.0497 10.6132 49.6066 11.9485 51.6327 12.1209C53.4242 12.2716 54.8317 11.5824 55.8768 10.0962C56.3886 9.38547 57.2204 9.25624 57.8815 9.83778C58.2654 10.1609 58.308 10.5916 58.0095 11.0009C57.8389 11.2162 57.6896 11.4316 57.5189 11.6685C56.8365 12.6162 55.9407 13.2624 54.8317 13.6501C53.0403 14.2747 51.2488 14.3609 49.4787 13.6932C47.09 12.8101 45.6824 11.0439 45.2772 8.52393C45.0426 6.97316 45.1919 5.42239 45.8957 4.02239C46.9194 2.01932 48.5189 0.791625 50.7369 0.425472C52.2085 0.188548 53.6588 0.339318 55.0237 1.00701C56.9644 1.93316 58.1374 3.50547 58.5853 5.5947C58.7133 6.17624 58.7559 6.75778 58.7986 7.33932C58.8412 7.70547 58.6706 7.85624 58.308 7.87778C58.1374 7.87778 57.9881 7.87778 57.8175 7.87778C54.5118 7.87778 51.2061 7.87778 47.9218 7.87778C47.7725 7.89932 47.6659 7.89932 47.4526 7.89932ZM56.4739 5.70239C56.1967 3.82855 53.9573 2.19163 51.8886 2.32086C49.7346 2.45009 47.6019 4.10855 47.5166 5.70239C50.481 5.70239 53.4881 5.70239 56.4739 5.70239Z" fill="#CECECE"/>
<path fill-rule="evenodd" clip-rule="evenodd" d="M30.519 7.8348C30.5403 8.02865 30.5616 8.15788 30.5829 8.30865C30.9881 10.5271 32.7796 12.0563 34.9976 12.0994C36.6825 12.121 37.9834 11.4317 38.9644 10.0533C39.4763 9.32096 40.3934 9.2348 41.0332 9.88096C41.3317 10.204 41.3957 10.5917 41.0971 10.9794C40.9692 11.1733 40.8412 11.3456 40.6919 11.4963C39.9668 12.5733 38.9644 13.2625 37.7488 13.6717C35.9573 14.2748 34.1659 14.3179 32.4384 13.6286C29.9645 12.6594 28.5782 10.7425 28.2796 8.07173C28.1303 6.77942 28.2583 5.53019 28.7915 4.34557C29.8365 2.10557 31.5213 0.727109 33.9739 0.404032C35.2749 0.231724 36.5758 0.339416 37.7701 0.834801C39.9455 1.73942 41.2038 3.44096 41.6943 5.74557C41.7796 6.26249 41.8436 6.82249 41.8649 7.33942C41.8862 7.77019 41.8009 7.85634 41.3531 7.85634C40.5853 7.85634 39.7749 7.85634 38.9858 7.85634C36.3412 7.85634 33.6967 7.85634 31.0948 7.85634C30.9028 7.8348 30.7322 7.8348 30.519 7.8348ZM39.5829 5.63788C39.3057 3.78557 37.1303 2.21326 34.9976 2.25634C32.9289 2.29942 30.7749 3.97942 30.6043 5.63788C33.59 5.63788 36.5545 5.63788 39.5829 5.63788Z" fill="#CECECE"/>
<path fill-rule="evenodd" clip-rule="evenodd" d="M67.6279 8.82551C67.7985 8.97628 67.8838 9.06244 67.9905 9.14859C69.1421 10.1394 70.2938 11.1301 71.4241 12.1209C71.4881 12.1855 71.5947 12.2717 71.6587 12.3363C72.0853 12.7671 72.1279 13.3917 71.7227 13.8224C71.3388 14.2532 70.7417 14.3178 70.2938 13.9517C69.4834 13.284 68.7156 12.5947 67.9265 11.9271C66.7962 10.9578 65.6872 9.98859 64.5568 9.01936C64.4715 8.93321 64.3436 8.84705 64.1729 8.71782C64.1729 8.95474 64.1516 9.10551 64.1516 9.25628C64.1516 11.9917 64.1516 9.94551 64.1516 12.6809C64.1516 12.8101 64.1516 12.9394 64.1516 13.0686C64.109 13.6717 63.6611 14.1024 63.0639 14.0594C62.4881 14.0378 62.1042 13.6071 62.0829 13.004C62.0829 12.8747 62.0829 12.7455 62.0829 12.6163C62.0829 7.21013 62.0829 6.58551 62.0829 1.17936C62.0829 1.00705 62.0829 0.856283 62.0829 0.683975C62.0829 0.296283 62.1255 0.231667 62.4881 0.231667C62.9786 0.210129 63.4691 0.210129 63.9597 0.210129C65.1327 0.210129 66.3483 0.253206 67.5213 0.18859C69.5047 0.102436 71.7227 1.71782 71.936 4.06551C72.1279 6.17628 70.699 8.17936 68.5663 8.61013C68.2891 8.67474 67.9905 8.7609 67.6279 8.82551ZM64.0236 7.16705C64.1516 7.18859 64.2369 7.18859 64.3009 7.18859C65.2819 7.18859 66.2843 7.18859 67.2654 7.18859C67.5426 7.18859 67.8412 7.16705 68.1184 7.05936C69.0355 6.77936 69.7606 6.21936 69.9952 5.22859C70.4004 3.52705 69.1421 1.97628 67.4146 1.97628C66.3909 1.97628 65.3886 1.97628 64.3436 1.97628C64.2156 1.97628 64.109 1.99782 63.981 1.99782C64.0236 3.7209 64.0236 5.42244 64.0236 7.16705Z" fill="#CECECE"/>
<path fill-rule="evenodd" clip-rule="evenodd" d="M22.8412 7.85628C20.8791 7.85628 18.981 7.85628 17.0403 7.85628C17.0403 8.02859 17.0189 8.17936 17.0189 8.33013C17.0189 9.83782 17.0189 11.324 17.0189 12.8317C17.0189 13.0255 17.0189 13.2194 16.9763 13.3701C16.827 13.8224 16.3578 14.1024 15.9099 14.0809C15.4194 14.0378 15.0142 13.6501 14.9502 13.1547C14.9289 13.0255 14.9502 12.9178 14.9502 12.7886C14.9502 7.42551 14.9289 6.77936 14.9289 1.43782C14.9289 1.22244 14.9502 1.00705 15.0142 0.813206C15.1848 0.360898 15.654 0.102437 16.1445 0.167052C16.5924 0.231668 16.9763 0.61936 17.0189 1.09321C17.0403 1.24398 17.0189 1.37321 17.0189 1.52397C17.0189 4.2809 17.0403 2.3209 17.0403 5.07782C17.0403 5.25013 17.0616 5.4009 17.0616 5.55167C17.4242 5.63782 22.4573 5.63782 22.8412 5.55167C22.8412 5.42244 22.8625 5.2932 22.8625 5.14244C22.8625 3.93628 22.8625 2.70859 22.8625 1.50244C22.8625 1.37321 22.8625 1.26551 22.8625 1.13628C22.9052 0.597821 23.3104 0.188591 23.8436 0.167052C24.3768 0.145514 24.8673 0.554744 24.9313 1.09321C24.9526 1.22244 24.9313 1.33013 24.9313 1.45936C24.9313 5.22859 24.9313 8.97628 24.9313 12.7455C24.9313 12.8747 24.9313 12.9824 24.9313 13.1117C24.8673 13.6501 24.3981 14.0809 23.8649 14.0594C23.3317 14.0378 22.9052 13.607 22.8412 13.0686C22.8412 12.9394 22.8412 12.8317 22.8412 12.7024C22.8412 11.2594 22.8412 9.7732 22.8412 8.33013C22.8412 8.2009 22.8412 8.05013 22.8412 7.85628Z" fill="#CECECE"/>
<path fill-rule="evenodd" clip-rule="evenodd" d="M5.8649 14.167C4.47865 14.1455 3.1777 13.8439 1.98339 13.1116C1.47154 12.8101 1.00234 12.4224 0.618457 11.9701C0.426514 11.7331 0.191916 11.4962 0.106608 11.1947C-0.0213538 10.807 -0.0426808 10.3762 0.319878 10.0316C0.725092 9.64391 1.27959 9.49314 1.8341 9.8593C2.36727 10.247 2.6232 10.7424 3.07106 11.1947C3.71087 11.8408 4.54263 12.1855 5.43836 12.2931C6.27011 12.3793 7.08054 12.3578 7.89097 12.0778C8.21087 11.9485 8.55211 11.7978 8.82936 11.5824C9.3412 11.0008 9.49049 10.1824 8.87201 9.62238C8.57343 9.36391 8.18955 9.17007 7.80566 8.99776C6.86727 8.58853 5.88623 8.30853 4.90519 8.05007C4.09476 7.85622 3.32699 7.59776 2.51656 7.36084C2.21798 7.27468 1.9194 7.10238 1.64215 6.95161C0.895708 6.54238 0.469168 5.89622 0.341205 5.07776C0.106608 3.37622 0.725092 1.84699 2.19666 1.09315C4.49997 -0.0483924 6.8886 0.0593 9.19192 1.37315C9.61846 1.61007 10.0237 1.97622 10.3862 2.2993C10.6635 2.53622 10.8767 2.88084 10.9834 3.24699C11.09 3.6993 10.8767 4.17315 10.3222 4.30238C9.85305 4.41007 9.42651 4.2593 9.08528 3.89315C9.0213 3.82853 8.95732 3.74238 8.91466 3.67776C8.38149 2.8593 7.59239 2.40699 6.654 2.23468C5.71561 2.06238 4.77722 2.08392 3.88149 2.45007C3.56158 2.5793 3.22035 2.75161 2.96443 2.98853C2.58054 3.50545 2.43125 4.19468 2.9431 4.84084C3.34831 5.22853 3.81751 5.44391 4.32936 5.55161C5.45969 5.83161 6.61135 6.13315 7.74168 6.41315C8.4668 6.60699 9.17059 6.84391 9.83173 7.23161C10.6848 7.68391 11.3033 8.35161 11.5166 9.32084C11.7725 10.5055 11.5166 11.6255 10.5995 12.487C9.55447 13.4347 8.36016 13.9516 6.97391 14.1024C6.59002 14.1455 6.20613 14.1455 5.8649 14.167Z" fill="#CECECE"/>
</g>
<defs>
<clipPath id="clip0_34_317">
<rect width="72" height="14" fill="white" transform="translate(0 0.188477)"/>
</clipPath>
</defs>
</svg>
