<svg width="38" height="40" viewBox="0 0 38 40" fill="none" xmlns="http://www.w3.org/2000/svg">
<g clip-path="url(#clip0_34_301)">
<path d="M6.12305 0.740818C4.32695 1.14453 3.23594 1.73105 2.12266 2.86602C1.20977 3.81055 0.586328 4.89219 0.215234 6.20996L0.0371094 6.81934V20.1875V33.5557L0.215234 34.165C0.964844 36.793 2.90195 38.7658 5.42539 39.4742L6.04883 39.6494H19H31.9512L32.582 39.4742C35.0832 38.7811 37.1168 36.6939 37.7922 34.127L37.9629 33.4795V20.1875V6.89551L37.7922 6.25566C36.9609 3.14023 34.3113 0.885548 31.2758 0.71035C30.3332 0.657032 30.0512 0.71035 29.7098 1.01504C29.1828 1.4873 29.168 1.57871 29.168 4.24472V6.62891H19H8.83203V4.24472C8.83203 2.09668 8.81719 1.8377 8.69102 1.56348C8.52773 1.20547 8.21602 0.885548 7.91914 0.77129C7.71875 0.6875 6.42734 0.672264 6.12305 0.740818ZM5.77422 14.4441L5.75195 24.7807L5.30664 24.9102C4.49023 25.1463 3.96328 25.4053 3.13203 25.9613L2.96133 26.0756L2.98359 16.7902L3.00586 7.50488L3.20625 6.89551C3.45859 6.14902 3.88164 5.46347 4.41602 4.96836C4.82422 4.5875 5.52187 4.12285 5.7 4.11523C5.77422 4.11523 5.78906 6.20234 5.77422 14.4441ZM32.775 4.35137C33.7027 4.89219 34.4375 5.82148 34.7938 6.89551L34.9941 7.50488L35.0164 16.7826L35.0387 26.0527L34.4969 25.7176C33.8957 25.3443 33.3687 25.1082 32.6934 24.9102L32.248 24.7807L32.2258 14.4441C32.2184 6.79648 32.2332 4.11523 32.2926 4.11523C32.3371 4.11523 32.5598 4.22187 32.775 4.35137ZM29.168 18.1461C29.168 26.1518 29.1754 26.5631 29.309 26.8525C29.5539 27.401 30.0586 27.7285 30.6672 27.7285C31.1867 27.7285 31.9883 27.9418 32.5746 28.2236C32.9828 28.4293 33.2648 28.635 33.6953 29.0844C34.5859 30.0061 34.957 30.9125 34.957 32.1998C34.957 34.165 33.7398 35.818 31.8398 36.4273L31.2832 36.6025H18.9629H6.64258L6.05625 36.3893C5.32148 36.1227 4.9207 35.8865 4.41602 35.4066C3.52539 34.5764 3.04297 33.4414 3.04297 32.1998C3.04297 30.9125 3.41406 30.0061 4.30469 29.0844C4.73516 28.635 5.01719 28.4293 5.42539 28.2236C6.01172 27.9418 6.81328 27.7285 7.33281 27.7285C7.94141 27.7285 8.44609 27.401 8.69102 26.8525C8.82461 26.5631 8.83203 26.1518 8.83203 18.1461V9.75195H19H29.168V18.1461Z" fill="#00A896"/>
<path d="M12.5059 12.7912C12.1496 12.9588 11.9195 13.2025 11.7637 13.5758C11.6672 13.8195 11.6523 14.3527 11.6523 17.1939C11.6523 20.2789 11.6672 20.5531 11.7934 20.835C11.9566 21.193 12.2684 21.5129 12.5652 21.6271C12.7063 21.6805 13.9383 21.7109 16.1203 21.7109H19.4676L19.7867 21.5205C19.9797 21.4062 20.1875 21.193 20.2988 20.9949L20.4844 20.6674V17.232C20.4844 14.9926 20.4547 13.7281 20.4027 13.5834C20.2914 13.2787 19.9797 12.9588 19.6309 12.7912C19.3563 12.6617 19.0891 12.6465 16.0684 12.6465C13.0477 12.6465 12.7805 12.6617 12.5059 12.7912ZM17.5156 17.2168V18.6641H16.1055H14.6953V17.2168V15.7695H16.1055H17.5156V17.2168Z" fill="#00A896"/>
<path d="M18.5324 24.6816C18.2059 24.7807 17.8273 25.1158 17.6641 25.4434C17.523 25.7252 17.5156 25.8928 17.5156 29.191C17.5156 32.6264 17.5156 32.6416 17.6863 32.9463C17.7754 33.1063 17.998 33.35 18.1688 33.4795L18.4953 33.708H21.8871H25.2863L25.6426 33.4795C25.8801 33.3271 26.0582 33.1367 26.177 32.9082L26.3551 32.573L26.3328 29.0996L26.3105 25.6262L26.1027 25.3063C25.9914 25.1311 25.7613 24.9102 25.5832 24.8188C25.2715 24.6436 25.2492 24.6436 22.0059 24.6283C20.2098 24.6207 18.6438 24.6436 18.5324 24.6816ZM23.3047 29.1758V30.623H21.8945H20.4844V29.1758V27.7285H21.8945H23.3047V29.1758Z" fill="#00A896"/>
</g>
<defs>
<clipPath id="clip0_34_301">
<rect width="38" height="39" fill="white" transform="translate(0 0.6875)"/>
</clipPath>
</defs>
</svg>
