<svg width="38" height="39" viewBox="0 0 38 39" fill="none" xmlns="http://www.w3.org/2000/svg">
<g clip-path="url(#clip0_34_284)">
<path d="M3.22882 0.453537C1.70734 0.898849 0.504993 2.12346 0.111633 3.6301C0.0151489 3.99377 0.000305176 5.21096 0.000305176 12.0539V20.0473L0.185852 20.6336C0.512415 21.6578 1.21007 22.541 2.16749 23.1199C2.94679 23.5875 3.42921 23.7063 4.80226 23.7434L6.01202 23.7879L6.09366 24.0922C6.39054 25.2574 7.0214 26.3707 7.94171 27.3578C8.25343 27.6918 8.26827 27.7215 8.13468 27.8031C7.11788 28.4117 6.24952 29.0871 5.64093 29.7551C3.98585 31.5586 3.04327 33.7555 2.85773 36.2418C2.78351 37.2586 3.02101 37.8524 3.63702 38.1641C3.92648 38.3125 4.05265 38.3125 13.2335 38.2977L22.5331 38.2754L22.8003 38.0973C23.2901 37.7559 23.4163 37.4887 23.4386 36.6574C23.5351 34.0078 22.1472 30.9723 19.9651 29.0649C19.4679 28.627 18.2284 27.7735 18.0948 27.7735C18.0503 27.7735 18.2062 27.5805 18.4437 27.343C19.3788 26.4078 19.928 25.4133 20.3808 23.8547C20.3956 23.7879 20.7593 23.7656 21.8577 23.7656H23.305V26.0071C23.305 27.3281 23.3347 28.3672 23.3792 28.5305C23.4831 28.8867 23.7726 29.2281 24.1288 29.4063C24.4405 29.5696 25.0937 29.6067 25.4351 29.4805C25.5464 29.436 26.912 28.1371 28.4632 26.586L31.2835 23.7805L32.8421 23.7434C34.1706 23.7211 34.4749 23.6914 34.8831 23.5578C36.1894 23.1348 37.3101 22.066 37.7925 20.7746L37.9632 20.3145L37.9855 12.2024C38.0077 3.18479 38.03 3.71174 37.503 2.65783C37.1468 1.94533 36.3675 1.16603 35.655 0.809788C34.5862 0.27541 35.9148 0.312519 18.9558 0.319942C4.62413 0.319942 3.64445 0.334785 3.22882 0.453537ZM34.178 3.47424C34.5194 3.65979 34.6605 3.80822 34.8534 4.17189C34.987 4.41682 34.9944 4.76565 35.0167 11.7348C35.0316 16.5442 35.0093 19.1789 34.9573 19.4461C34.8757 19.9137 34.6085 20.2996 34.2077 20.5371C33.9776 20.6707 33.7847 20.6856 32.0628 20.7227C30.6675 20.7524 30.1183 20.7895 29.9847 20.8637C29.8808 20.9156 29.0198 21.7321 28.0773 22.6746L26.348 24.3965V23.1348C26.348 21.7692 26.2812 21.4723 25.8952 21.116C25.487 20.7449 25.3312 20.7227 22.8003 20.7227H20.4401L20.2694 20.1438C19.5569 17.6797 17.5901 15.7574 15.089 15.0672C14.5917 14.9262 14.3171 14.9039 13.1741 14.9039C11.9273 14.9039 11.7937 14.9188 11.1702 15.1117C9.53741 15.609 8.0382 16.6852 7.13273 17.9989C6.76905 18.5258 6.25695 19.6317 6.10851 20.2106L5.97491 20.7375L5.01007 20.7078C4.20851 20.693 4.0007 20.6633 3.79288 20.5371C3.3921 20.2996 3.12491 19.9137 3.04327 19.4461C2.99132 19.1789 2.96906 16.5442 2.9839 11.7348C3.00616 4.76565 3.01359 4.41682 3.14718 4.17189C3.40695 3.68205 3.70382 3.4594 4.23077 3.34807C4.37179 3.31838 11.1034 3.30354 19.1859 3.31096L33.8812 3.31838L34.178 3.47424ZM14.5769 18.1102C15.8609 18.5778 16.848 19.5797 17.3007 20.8711C17.5308 21.5168 17.5456 22.7785 17.3378 23.3946C16.9519 24.5375 16.128 25.5246 15.1558 26.0071C13.4116 26.8828 11.5339 26.5711 10.1683 25.1832C9.31476 24.3149 8.90656 23.3649 8.90656 22.2293C8.90656 21.4871 9.01788 21.0121 9.36671 20.2848C9.8714 19.2235 10.8659 18.3922 12.0609 18.036C12.6917 17.8504 13.9683 17.8875 14.5769 18.1102ZM14.3542 29.666C15.9202 29.9406 17.3155 30.6828 18.3917 31.811C19.0077 32.4567 19.2898 32.8649 19.6683 33.6219C19.9132 34.1192 20.262 35.084 20.262 35.277C20.262 35.3141 17.2933 35.3438 13.1741 35.3438C6.36085 35.3438 6.08624 35.3364 6.08624 35.2102C6.08624 34.7574 6.76163 33.2731 7.28859 32.5606C8.95851 30.3192 11.6823 29.1985 14.3542 29.666Z" fill="#00A896"/>
<path d="M6.79132 6.21289C6.22726 6.41328 5.78937 7.05898 5.78937 7.69727C5.78937 8.09063 6.11593 8.66953 6.46476 8.89961L6.7839 9.10742L18.9261 9.12969L31.0757 9.14453L31.4023 8.97383C32.0034 8.65469 32.3226 7.89766 32.137 7.21484C32.0257 6.7918 31.5433 6.29453 31.1351 6.1832C30.9198 6.12383 27.439 6.10156 18.9632 6.10156C8.9214 6.10898 7.04366 6.12383 6.79132 6.21289Z" fill="#00A896"/>
<path d="M18.3694 12.106C18.0206 12.2693 17.7089 12.581 17.5976 12.8779C17.553 12.9966 17.5159 13.2787 17.5159 13.5087C17.5159 14.0357 17.7312 14.429 18.1691 14.7482L18.4956 14.9708L24.6484 14.9931C29.0347 15.0079 30.8976 14.9857 31.1202 14.9263C31.714 14.7704 32.2112 14.0802 32.2112 13.4122C32.2112 13.0189 31.8847 12.44 31.5359 12.2099L31.2167 12.0021L24.9452 11.9872C18.9558 11.965 18.6515 11.9724 18.3694 12.106Z" fill="#00A896"/>
</g>
<defs>
<clipPath id="clip0_34_284">
<rect width="38" height="38" fill="white" transform="translate(0.000305176 0.3125)"/>
</clipPath>
</defs>
</svg>
