<svg width="39" height="39" viewBox="0 0 39 39" fill="none" xmlns="http://www.w3.org/2000/svg">
<g clip-path="url(#clip0_34_289)">
<path d="M10.0668 0.402737C9.63633 0.684765 0.774609 9.57617 0.61875 9.88789C0.514844 10.1031 0.5 11.2684 0.5 22.1637V34.202L0.685547 34.5211C0.796875 34.7141 1.00469 34.9219 1.19766 35.0332L1.5168 35.2188H7.625H13.7332L14.0523 35.0332C14.5199 34.7586 14.75 34.3281 14.75 33.7344C14.75 33.1406 14.5199 32.7102 14.0523 32.4355L13.7332 32.25H8.6418H3.54297V22.1562V12.0625H7.4543H11.3582L11.6773 11.877C11.8777 11.7582 12.0781 11.5504 12.2043 11.3352L12.4121 10.9863L12.4344 7.06758L12.4566 3.15625H18.0602H23.6562V5.47188V7.78008L23.8418 8.09922C24.1164 8.5668 24.5469 8.79688 25.1406 8.79688C25.7492 8.79688 26.1648 8.5668 26.4543 8.06953L26.6621 7.7207V4.49219V1.26367L26.4543 0.914845C26.3281 0.699612 26.1277 0.491798 25.9273 0.373047L25.6082 0.1875H18.0082H10.4008L10.0668 0.402737ZM9.40625 7.23828V9.09375H7.53594H5.6582L7.51367 7.23828C8.53047 6.21406 9.37656 5.38281 9.38398 5.38281C9.39883 5.38281 9.40625 6.21406 9.40625 7.23828Z" fill="#00A896"/>
<path d="M20.9473 11.9067C19.4406 12.3372 18.2234 13.5841 17.8375 15.0833C17.7336 15.4841 17.7187 16.6419 17.7187 24.9767C17.7187 35.4712 17.6891 34.8181 18.2234 35.8497C18.5797 36.5399 19.3664 37.3267 20.0566 37.6829C21.066 38.2099 20.7469 38.1876 28.1094 38.1876C35.457 38.1876 35.123 38.2099 36.1547 37.6903C36.8449 37.3415 37.6316 36.5622 37.9953 35.8497C38.5297 34.8181 38.5 35.4712 38.5 24.9767C38.5 14.497 38.5297 15.1575 38.0027 14.111C37.6465 13.3985 36.8672 12.6192 36.1547 12.263C35.123 11.7435 35.4644 11.7657 28.0648 11.7732C21.9715 11.7732 21.3555 11.788 20.9473 11.9067ZM34.6777 14.9275C35.0191 15.113 35.1601 15.2614 35.3531 15.6251C35.4867 15.8775 35.4941 16.2337 35.4941 24.9767V34.0685L35.2863 34.4173C35.1527 34.6474 34.9598 34.8403 34.7297 34.9739L34.3809 35.1817H28.1094C22.1273 35.1817 21.823 35.1743 21.5781 35.0407C21.2144 34.8478 21.066 34.6993 20.9027 34.3876C20.7691 34.1204 20.7617 33.7939 20.7617 24.9767C20.7617 16.7013 20.7766 15.8181 20.8805 15.6028C21.1105 15.1501 21.4297 14.9126 21.9492 14.8013C22.0902 14.7716 24.9476 14.7567 28.2949 14.7567C34.366 14.7716 34.3809 14.7716 34.6777 14.9275Z" fill="#00A896"/>
<path d="M24.3465 17.8961C23.8863 18.1707 23.6562 18.6012 23.6562 19.1875C23.6562 19.7812 23.8863 20.2117 24.3539 20.4863L24.673 20.6719H28.1094H31.5457L31.8648 20.4863C32.3324 20.2117 32.5625 19.7812 32.5625 19.1875C32.5625 18.5938 32.3324 18.1633 31.8648 17.8887L31.5457 17.7031H28.102H24.6582L24.3465 17.8961Z" fill="#00A896"/>
<path d="M24.3465 23.8336C23.8863 24.1082 23.6562 24.5387 23.6562 25.125C23.6562 26.0379 24.2277 26.6094 25.1406 26.6094C25.5117 26.6094 25.6824 26.5723 25.9273 26.4238C26.8848 25.8672 26.8848 24.3828 25.9273 23.8262C25.4746 23.5664 24.7918 23.5664 24.3465 23.8336Z" fill="#00A896"/>
<path d="M30.284 23.8336C29.8238 24.1082 29.5938 24.5387 29.5938 25.125C29.5938 26.0379 30.1652 26.6094 31.0781 26.6094C31.991 26.6094 32.5625 26.0379 32.5625 25.125C32.5625 24.2121 31.991 23.6406 31.0707 23.6406C30.6922 23.6406 30.5289 23.6777 30.284 23.8336Z" fill="#00A896"/>
<path d="M24.3465 29.7711C23.8863 30.0457 23.6562 30.4762 23.6562 31.0625C23.6562 31.9754 24.2277 32.5469 25.1406 32.5469C25.5117 32.5469 25.6824 32.5098 25.9273 32.3613C26.8848 31.8047 26.8848 30.3203 25.9273 29.7637C25.4746 29.5039 24.7918 29.5039 24.3465 29.7711Z" fill="#00A896"/>
<path d="M30.284 29.7711C29.8238 30.0457 29.5938 30.4762 29.5938 31.0625C29.5938 31.9754 30.1652 32.5469 31.0781 32.5469C31.991 32.5469 32.5625 31.9754 32.5625 31.0625C32.5625 30.1496 31.991 29.5781 31.0707 29.5781C30.6922 29.5781 30.5289 29.6152 30.284 29.7711Z" fill="#00A896"/>
<path d="M7.12773 14.9273C6.66758 15.202 6.4375 15.6324 6.4375 16.2188C6.4375 16.8125 6.66758 17.243 7.13516 17.5176L7.4543 17.7031H10.5938H13.7332L14.0523 17.5176C14.5199 17.243 14.75 16.8125 14.75 16.2188C14.75 15.625 14.5199 15.1945 14.0523 14.9199L13.7332 14.7344H10.5863H7.43945L7.12773 14.9273Z" fill="#00A896"/>
<path d="M7.12773 20.8648C6.66758 21.1395 6.4375 21.5699 6.4375 22.1562C6.4375 22.75 6.66758 23.1805 7.13516 23.4551L7.4543 23.6406H10.5938H13.7332L14.0523 23.4551C14.5199 23.1805 14.75 22.75 14.75 22.1562C14.75 21.5625 14.5199 21.132 14.0523 20.8574L13.7332 20.6719H10.5863H7.43945L7.12773 20.8648Z" fill="#00A896"/>
<path d="M7.12773 26.8023C6.66758 27.077 6.4375 27.5074 6.4375 28.0938C6.4375 28.6875 6.66758 29.118 7.13516 29.3926L7.4543 29.5781H10.5938H13.7332L14.0523 29.3926C14.5199 29.118 14.75 28.6875 14.75 28.0938C14.75 27.5 14.5199 27.0695 14.0523 26.7949L13.7332 26.6094H10.5863H7.43945L7.12773 26.8023Z" fill="#00A896"/>
</g>
<defs>
<clipPath id="clip0_34_289">
<rect width="38" height="38" fill="white" transform="translate(0.5 0.1875)"/>
</clipPath>
</defs>
</svg>
