<svg width="208" height="54" viewBox="0 0 208 54" fill="none" xmlns="http://www.w3.org/2000/svg">
<g clip-path="url(#clip0_34_326)">
<path fill-rule="evenodd" clip-rule="evenodd" d="M22.9456 0.667612C15.6877 2.08511 7.93835 7.37261 4.43035 13.3126C0.589702 19.8076 -1.00553 28.7776 0.642624 34.6201L1.51206 37.7101L2.87292 34.9876C4.84617 31.0276 11.7034 25.0051 21.8721 18.2926C33.6964 10.4851 39.1852 4.82261 37.4993 2.17511C36.9171 1.26011 30.7328 -0.112388 27.754 0.00761228C26.756 0.0526123 24.5938 0.345112 22.9456 0.667612ZM38.588 3.68261C38.9811 5.73011 36.8566 9.34511 33.5679 12.2026C32.2675 13.3351 26.567 17.3626 20.9043 21.1426C6.42628 30.8176 0.846753 37.1326 3.3341 41.0326C3.78016 41.7226 4.66472 41.1901 6.96307 38.8351C8.98168 36.7651 13.843 33.6076 21.4411 29.4151C38.4746 20.0251 42.7008 16.7851 44.3338 11.8876C45.4225 8.63261 44.1448 5.03261 41.2946 3.31511C38.4746 1.61261 38.2024 1.65011 38.588 3.68261ZM45.6115 6.58511C46.7909 8.86511 46.5339 13.0801 45.0823 15.3901C41.8087 20.5801 36.3955 24.4651 22.1291 31.8526C10.8869 37.6801 5.49636 41.6101 5.49636 43.9876C5.49636 45.6826 6.56993 46.1251 7.62082 44.8576C9.04216 43.1626 13.2986 41.2501 23.0817 37.9351C49.8907 28.8376 58.6985 18.3376 48.0611 8.16011C46.2088 6.39011 45.1655 5.72261 45.6115 6.58511ZM54.0867 18.7201C53.8901 23.8801 48.6054 29.5201 39.6615 34.1326C36.6903 35.6626 29.1224 38.6626 22.8322 40.8001C13.1474 44.1001 7.54521 46.8376 8.5205 47.7976C8.64902 47.9251 9.99476 47.5951 11.5068 47.0701C13.0189 46.5376 18.4472 45.2926 23.5731 44.2876C40.4705 40.9876 49.936 37.2676 54.0564 32.3026C56.8689 28.9201 57.2166 26.2951 55.5534 21.0901C54.5025 17.8426 54.1396 17.2501 54.0867 18.7201ZM53.4743 36.0901C48.9985 40.6276 40.2664 43.7626 22.9759 47.0326C17.7441 48.0226 12.9962 49.1251 12.4292 49.4851C11.6127 50.0026 11.6883 50.0626 12.777 49.7926C13.5406 49.6051 18.0616 49.1176 22.8247 48.7051C40.3798 47.2051 49.7168 44.8501 52.8846 41.1226C54.4495 39.2776 56.5513 34.4476 55.9843 33.9826C55.8558 33.8776 54.7217 34.8226 53.4743 36.0901ZM47.1916 47.0701C44.2204 48.3526 36.5693 49.8976 29.0619 50.7301C23.5353 51.3376 23.7546 51.3601 32.5246 51.1051C43.1015 50.7901 46.1332 50.1376 48.4618 47.6776C50.3216 45.7126 50.3216 45.7126 47.1916 47.0701ZM34.2634 53.5051L30.1053 53.9626L33.9157 54.0001C36.0099 54.0151 38.6636 53.7976 39.8052 53.5126C41.6197 53.0551 41.665 52.9951 40.153 53.0251C39.2003 53.0401 36.5467 53.2576 34.2634 53.5051Z" fill="white"/>
<path d="M140.464 40.5H136.91V26.2875H130.023V40.5H126.477V23.4375H140.464V40.5ZM154.866 34.275C154.866 36.225 154.42 37.7925 153.52 38.9775C152.628 40.1475 151.426 40.7325 149.906 40.7325C148.614 40.7325 147.57 40.29 146.776 39.3975V45.375H143.367V27.8175H146.534L146.655 29.0625C147.48 28.08 148.561 27.585 149.891 27.585C151.464 27.585 152.689 28.1625 153.566 29.3175C154.443 30.4725 154.874 32.07 154.874 34.1025V34.275H154.866ZM151.456 34.035C151.456 32.8575 151.245 31.9425 150.821 31.305C150.405 30.6675 149.793 30.345 148.992 30.345C147.918 30.345 147.185 30.75 146.784 31.5675V36.75C147.2 37.5825 147.948 38.0025 149.014 38.0025C150.64 38.0025 151.456 36.6825 151.456 34.035ZM156.461 34.0425C156.461 32.7825 156.703 31.665 157.195 30.6825C157.678 29.7 158.382 28.935 159.296 28.395C160.219 27.855 161.285 27.585 162.494 27.585C164.218 27.585 165.624 28.11 166.713 29.1525C167.809 30.2025 168.414 31.62 168.543 33.42L168.565 34.29C168.565 36.2325 168.021 37.8 166.925 38.9775C165.828 40.1475 164.362 40.7325 162.517 40.7325C160.672 40.7325 159.206 40.1475 158.102 38.9775C157.006 37.8075 156.461 36.21 156.461 34.1925V34.0425ZM159.878 34.29C159.878 35.49 160.105 36.4125 160.566 37.0575C161.02 37.6875 161.678 38.01 162.525 38.01C163.349 38.01 163.999 37.695 164.46 37.0725C164.921 36.4425 165.156 35.43 165.156 34.05C165.156 32.8725 164.921 31.9575 164.46 31.305C163.999 30.66 163.341 30.33 162.502 30.33C161.67 30.33 161.02 30.6525 160.566 31.305C160.105 31.9425 159.878 32.94 159.878 34.29ZM176.557 40.7325C174.682 40.7325 173.154 40.1625 171.975 39.0225C170.803 37.8825 170.213 36.36 170.213 34.4625V34.1325C170.213 32.8575 170.463 31.725 170.962 30.72C171.461 29.715 172.156 28.935 173.064 28.4025C173.978 27.855 175.014 27.585 176.186 27.585C177.933 27.585 179.309 28.1325 180.306 29.2275C181.312 30.3225 181.819 31.875 181.819 33.8775V35.2575H173.676C173.789 36.0825 174.115 36.75 174.666 37.2525C175.226 37.755 175.929 38.0025 176.783 38.0025C178.099 38.0025 179.127 37.53 179.868 36.585L181.546 38.445C181.032 39.165 180.344 39.7275 179.467 40.1325C178.59 40.5375 177.623 40.7325 176.557 40.7325ZM176.163 30.33C175.483 30.33 174.931 30.555 174.508 31.0125C174.092 31.4625 173.82 32.115 173.706 32.955H178.454V32.685C178.439 31.935 178.235 31.3575 177.842 30.9525C177.449 30.5325 176.889 30.33 176.163 30.33ZM188.774 35.8275H187.406V40.5H183.988V27.8175H187.406V32.5875H188.623L191.413 27.8175H195.722L191.541 33.855L196.115 40.5H191.571L188.774 35.8275ZM208 30.54H203.902V40.5H200.477V30.54H196.448V27.8175H208V30.54Z" fill="white"/>
<path d="M74.5071 24.6675H68.6101V40.5H67.1585V24.6675H61.2765V23.4375H74.5071V24.6675ZM80.7293 40.7325C79.6406 40.7325 78.6578 40.47 77.7732 39.9375C76.8962 39.405 76.2158 38.67 75.7319 37.725C75.2405 36.7725 74.9985 35.7075 74.9985 34.5225V34.02C74.9985 32.7975 75.2329 31.7025 75.7092 30.7275C76.1931 29.7525 76.8584 28.9875 77.7051 28.4325C78.5595 27.87 79.4743 27.585 80.4722 27.585C82.0221 27.585 83.2544 28.11 84.1617 29.1675C85.0765 30.2175 85.5301 31.65 85.5301 33.465V34.2525H76.4123V34.5225C76.4123 35.9625 76.8281 37.1625 77.6522 38.1225C78.4839 39.075 79.5347 39.555 80.7973 39.555C81.5534 39.555 82.2187 39.42 82.7933 39.1425C83.3754 38.8725 83.9046 38.43 84.3734 37.83L85.2579 38.4975C84.2146 39.99 82.7025 40.7325 80.7293 40.7325ZM80.4722 28.785C79.4062 28.785 78.5141 29.175 77.7807 29.9475C77.055 30.72 76.6165 31.7625 76.4577 33.0675H84.1239V32.9175C84.0861 31.695 83.7383 30.705 83.073 29.94C82.4077 29.1675 81.5382 28.785 80.4722 28.785ZM92.2966 32.9625L95.7441 27.8175H97.4225L93.0904 34.0425L97.6115 40.5H95.9482L92.3117 35.13L88.6676 40.5H87.0044L91.5179 34.0425L87.1858 27.8175H88.8491L92.2966 32.9625ZM109.859 40.5H108.438V34.6875H101.55V40.5H100.129V27.8175H101.55V33.5025H108.438V27.8175H109.859V40.5ZM112.868 33.975C112.868 32.7525 113.103 31.6575 113.579 30.6825C114.055 29.7075 114.736 28.95 115.598 28.41C116.475 27.8625 117.457 27.5925 118.561 27.5925C120.262 27.5925 121.638 28.185 122.697 29.3775C123.755 30.555 124.277 32.1225 124.277 34.08V34.3725C124.277 35.6025 124.035 36.705 123.559 37.6875C123.082 38.6625 122.417 39.42 121.548 39.9525C120.678 40.485 119.695 40.7475 118.584 40.7475C116.89 40.7475 115.514 40.155 114.448 38.9775C113.39 37.7925 112.868 36.2175 112.868 34.2675V33.975ZM114.29 34.3575C114.29 35.8725 114.683 37.1175 115.469 38.0925C116.263 39.06 117.306 39.5475 118.591 39.5475C119.869 39.5475 120.897 39.06 121.684 38.0925C122.477 37.1175 122.878 35.8275 122.878 34.2375V33.975C122.878 33.0075 122.697 32.1225 122.334 31.3125C121.971 30.5025 121.464 29.8875 120.807 29.4525C120.156 29.01 119.408 28.785 118.561 28.785C117.299 28.785 116.27 29.28 115.477 30.2625C114.683 31.2375 114.282 32.52 114.282 34.11V34.3575H114.29Z" fill="white"/>
</g>
<defs>
<clipPath id="clip0_34_326">
<rect width="208" height="54" fill="white"/>
</clipPath>
</defs>
</svg>
