<svg width="181" height="46" viewBox="0 0 181 46" fill="none" xmlns="http://www.w3.org/2000/svg">
<g clip-path="url(#clip0_2_3)">
<path fill-rule="evenodd" clip-rule="evenodd" d="M20.7226 0.568349C14.4868 1.77369 7.8258 6.28142 4.8092 11.3374C1.50667 16.872 0.136575 24.5124 1.55433 29.4854L2.30431 32.1166L3.47187 29.7984C5.17079 26.4252 11.0616 21.2955 19.8017 15.5771C29.9618 8.92905 34.6779 4.10889 33.2316 1.85092C32.7336 1.07272 27.4129 -0.0986822 24.8555 0.00663834C23.9989 0.0417453 22.1392 0.294515 20.7226 0.568349ZM34.168 3.13525C34.5076 4.88007 32.6794 7.95659 29.854 10.393C28.7341 11.3591 23.8357 14.7861 18.9683 18.0089C6.52183 26.2502 1.7235 31.6339 3.86563 34.9539C4.24627 35.5442 5.01234 35.0849 6.98409 33.085C8.72054 31.3238 12.8958 28.6311 19.4264 25.0619C34.0638 17.0622 37.6999 14.3027 39.1016 10.1297C40.0344 7.35393 38.9401 4.29144 36.4912 2.82455C34.0692 1.37405 33.8314 1.40565 34.168 3.13525ZM40.2042 5.60854C41.2175 7.54937 40.9995 11.1443 39.7497 13.1074C36.9368 17.5256 32.2808 20.8361 20.0221 27.1338C10.3575 32.0985 5.72539 35.4489 5.72539 37.474C5.72539 38.9174 6.64633 39.2925 7.55418 38.2182C8.77655 36.7718 12.4335 35.1481 20.8399 32.3197C43.8832 24.5669 51.4515 15.6251 42.3076 6.95724C40.7141 5.44646 39.8206 4.87363 40.2042 5.60854ZM47.4871 15.9446C47.321 20.337 42.777 25.1473 35.0854 29.0711C32.534 30.3724 26.0237 32.9294 20.6178 34.7531C12.2918 37.5623 7.48029 39.8934 8.31544 40.7137C8.42689 40.8231 9.58194 40.544 10.8823 40.0935C12.1827 39.643 16.8488 38.5763 21.2509 37.7232C35.774 34.9094 43.907 31.741 47.4526 27.5159C49.8687 24.6371 50.1696 22.3996 48.7387 17.9638C47.8464 15.1974 47.5342 14.6936 47.4871 15.9446ZM46.9635 30.7428C43.1154 34.611 35.6126 37.2785 20.7488 40.0631C16.2537 40.905 12.1738 41.8459 11.6824 42.1531C10.9818 42.5908 11.0461 42.6481 11.9802 42.4176C12.6354 42.2555 16.5223 41.8395 20.6178 41.4925C35.7067 40.2146 43.7337 38.2071 46.4548 35.0311C47.8017 33.4583 49.6067 29.3438 49.1218 28.9511C49.0067 28.8587 48.0358 29.6644 46.9635 30.7428ZM41.5588 40.0947C39.0051 41.19 32.431 42.5042 25.979 43.2104C21.2295 43.73 21.4142 43.7499 28.9575 43.5281C38.049 43.2607 40.6516 42.706 42.6579 40.609C44.252 38.942 44.2501 38.9414 41.5588 40.0947ZM30.4467 45.5813L26.8725 45.9698L30.1489 45.9991C31.9509 46.0149 34.2294 45.827 35.2122 45.5813C36.773 45.191 36.8105 45.1384 35.5101 45.1635C34.691 45.1799 32.4125 45.3677 30.4467 45.5813Z" fill="url(#paint0_radial_2_3)"/>
<g style="mix-blend-mode:hard-light">
<path d="M121.732 34.5H118.676V22.3911H112.756V34.5H109.71V19.9653H121.732V34.5ZM134.109 29.1992C134.109 30.863 133.723 32.1973 132.951 33.2023C132.187 34.2005 131.151 34.6996 129.845 34.6996C128.735 34.6996 127.837 34.3203 127.154 33.5616V38.6528H124.22V23.6988H126.941L127.042 24.7569C127.753 23.9184 128.68 23.4991 129.824 23.4991C131.178 23.4991 132.231 23.9916 132.982 24.9766C133.733 25.9615 134.109 27.3191 134.109 29.0495V29.1992ZM131.175 28.9896C131.175 27.9847 130.992 27.2093 130.626 26.6636C130.268 26.1179 129.743 25.845 129.052 25.845C128.132 25.845 127.499 26.1911 127.154 26.8832V31.3055C127.512 32.0177 128.152 32.3737 129.073 32.3737C130.474 32.3737 131.175 31.2456 131.175 28.9896ZM135.48 28.9995C135.48 27.9281 135.69 26.9731 136.11 26.1345C136.529 25.296 137.131 24.6471 137.917 24.1879C138.709 23.7287 139.626 23.4991 140.668 23.4991C142.15 23.4991 143.359 23.945 144.293 24.8368C145.234 25.7286 145.758 26.9398 145.867 28.4705L145.887 29.2092C145.887 30.8663 145.416 32.1973 144.475 33.2023C143.535 34.2005 142.272 34.6996 140.688 34.6996C139.105 34.6996 137.839 34.2005 136.891 33.2023C135.95 32.204 135.48 30.8463 135.48 29.1294V28.9995ZM138.414 29.2092C138.414 30.2341 138.61 31.0194 139.003 31.5651C139.396 32.1042 139.957 32.3737 140.688 32.3737C141.399 32.3737 141.954 32.1075 142.354 31.5751C142.753 31.036 142.953 30.1775 142.953 28.9995C142.953 27.9946 142.753 27.216 142.354 26.6636C141.954 26.1113 141.393 25.8351 140.668 25.8351C139.951 25.8351 139.396 26.1113 139.003 26.6636C138.61 27.2093 138.414 28.0579 138.414 29.2092ZM152.751 34.6996C151.14 34.6996 149.827 34.2138 148.811 33.2421C147.802 32.2705 147.298 30.9761 147.298 29.3589V29.0794C147.298 27.9946 147.511 27.0263 147.938 26.1745C148.364 25.316 148.967 24.6571 149.745 24.1979C150.53 23.732 151.424 23.4991 152.426 23.4991C153.928 23.4991 155.11 23.965 155.969 24.8967C156.836 25.8284 157.269 27.1494 157.269 28.8598V30.0377H150.273C150.368 30.7432 150.652 31.3089 151.126 31.7348C151.606 32.1607 152.213 32.3737 152.944 32.3737C154.074 32.3737 154.958 31.9711 155.594 31.1658L157.036 32.753C156.596 33.3653 156 33.8445 155.249 34.1905C154.497 34.53 153.664 34.6996 152.751 34.6996ZM152.415 25.8351C151.833 25.8351 151.359 26.0281 150.994 26.4141C150.636 26.8 150.406 27.3524 150.304 28.0712H154.385V27.8416C154.372 27.2027 154.196 26.7102 153.857 26.3641C153.519 26.0114 153.039 25.8351 152.415 25.8351ZM163.249 30.5169H162.072V34.5H159.137V23.6988H162.072V27.7617H163.117L165.514 23.6988H169.22L165.625 28.8398L169.554 34.5H165.646L163.249 30.5169ZM179.779 26.0148H176.256V34.5H173.312V26.0148H169.849V23.6988H179.779V26.0148Z" fill="black"/>
</g>
<path d="M65.0352 21.0134H59.9686V34.5H58.7198V21.0134H53.6634V19.9653H65.0352V21.0134ZM70.3861 34.6996C69.4517 34.6996 68.6056 34.4734 67.8479 34.0208C67.0961 33.5683 66.5106 32.9394 66.0915 32.1341C65.6717 31.3222 65.4617 30.4138 65.4617 29.4088V28.9796C65.4617 27.9414 65.6646 27.0063 66.0707 26.1745C66.484 25.3426 67.0558 24.6904 67.7869 24.2178C68.5179 23.7387 69.31 23.4991 70.1626 23.4991C71.496 23.4991 72.552 23.9484 73.3305 24.8468C74.1155 25.7386 74.5086 26.9598 74.5086 28.5104V29.1793H66.6698V29.4088C66.6698 30.6334 67.0253 31.655 67.7362 32.4735C68.4536 33.2855 69.3536 33.6914 70.4368 33.6914C71.0866 33.6914 71.6585 33.5749 72.153 33.342C72.6534 33.1091 73.1069 32.7364 73.5131 32.224L74.2747 32.7929C73.3812 34.0641 72.0848 34.6996 70.3861 34.6996ZM70.1626 24.5174C69.249 24.5174 68.477 24.8468 67.8479 25.5057C67.2248 26.1645 66.8459 27.0496 66.7108 28.161H73.2999V28.0312C73.2661 26.993 72.9653 26.1479 72.3967 25.4956C71.8281 24.8434 71.0834 24.5174 70.1626 24.5174ZM80.3264 28.0811L83.2909 23.6988H84.7329L81.0068 28.9995L84.8953 34.5H83.4638L80.3362 29.928L77.2092 34.5H75.7777L79.6558 28.9995L75.9298 23.6988H77.3613L80.3264 28.0811ZM95.4243 34.5H94.2059V29.5486H88.2867V34.5H87.0683V23.6988H88.2867V28.5404H94.2059V23.6988H95.4243V34.5ZM98.0132 28.9397C98.0132 27.9015 98.2166 26.9664 98.6227 26.1345C99.0354 25.3027 99.6144 24.6571 100.359 24.1979C101.11 23.732 101.96 23.4991 102.908 23.4991C104.37 23.4991 105.554 24.0049 106.461 25.0165C107.368 26.0214 107.822 27.3557 107.822 29.0195V29.2691C107.822 30.3139 107.616 31.2557 107.202 32.0942C106.796 32.9261 106.221 33.5683 105.476 34.0208C104.732 34.4734 103.882 34.6996 102.928 34.6996C101.472 34.6996 100.288 34.1972 99.3739 33.1923C98.4668 32.1807 98.0132 30.843 98.0132 29.1793V28.9397ZM99.2323 29.2691C99.2323 30.5602 99.5702 31.6217 100.247 32.4536C100.931 33.2788 101.824 33.6914 102.928 33.6914C104.024 33.6914 104.911 33.2788 105.588 32.4536C106.272 31.6217 106.614 30.5269 106.614 29.1692V28.9397C106.614 28.1144 106.458 27.3591 106.146 26.6736C105.835 25.9881 105.398 25.4591 104.836 25.0863C104.275 24.707 103.632 24.5174 102.908 24.5174C101.824 24.5174 100.941 24.9366 100.258 25.7752C99.5741 26.607 99.2323 27.6985 99.2323 29.0495V29.2691Z" fill="black"/>
</g>
<defs>
<radialGradient id="paint0_radial_2_3" cx="0" cy="0" r="1" gradientUnits="userSpaceOnUse" gradientTransform="translate(33.1273 21.3567) rotate(136.507) scale(36.1301 37.4661)">
<stop stop-color="#00A896"/>
<stop offset="0.583333" stop-color="#00627C"/>
</radialGradient>
<clipPath id="clip0_2_3">
<rect width="180" height="46" fill="white" transform="translate(0.5)"/>
</clipPath>
</defs>
</svg>
