<svg width="56" height="61" viewBox="0 0 56 61" fill="none" xmlns="http://www.w3.org/2000/svg">
<g clip-path="url(#clip0_24_57)">
<path fill-rule="evenodd" clip-rule="evenodd" d="M0.875 21.5471V43.0941H7.72082H14.5666L14.8781 41.1275C15.0494 40.0458 15.3676 38.0579 15.5853 36.7098C15.8029 35.3617 16.2666 32.4887 16.6157 30.3255C16.9647 28.1622 17.6909 23.6733 18.2295 20.35C18.7681 17.0267 19.3835 13.2049 19.5969 11.857L19.9851 9.40639L17.735 4.70319L15.4848 0H8.17999H0.875V21.5471ZM22.8432 0.142507C22.8169 0.220943 22.5627 1.69583 22.2784 3.42017C21.9941 5.1445 20.7205 12.6961 19.4483 20.2017L17.1353 33.8479L18.4 36.1625C19.0958 37.4353 20.2238 39.5137 20.9067 40.7807L22.1486 43.0845L27.9573 43.1178C31.7562 43.1396 33.7802 43.1117 33.807 43.0371C33.8493 42.9192 33.9944 42.0329 35.6357 31.8645C37.5022 20.3015 38.4581 14.4065 38.8597 11.9803L39.2639 9.53884L36.8174 4.77181L34.3708 0.00490215L28.6309 0.00239411C24.1393 0.000570018 22.8804 0.0310095 22.8432 0.142507ZM41.9225 0.0285014C41.9222 0.0442342 41.87 0.364818 41.8066 0.741038C41.7432 1.11726 41.4036 3.22066 41.0519 5.41529C40.7002 7.60987 40.1833 10.7906 39.9032 12.4836C39.6231 14.1766 39.0291 17.8191 38.5832 20.578C38.1373 23.3369 37.4615 27.5054 37.0815 29.8414L36.3905 34.0886L38.8198 38.3203C40.1559 40.6478 41.3054 42.674 41.3741 42.823L41.499 43.0941H48.6871H55.875V21.5471V0H48.8991C45.0623 0 41.9229 0.0127686 41.9225 0.0285014ZM2.55279 49.8487C2.52834 49.9273 2.34294 51.1199 2.14069 52.4995C1.93857 53.8791 1.57109 56.3386 1.32411 57.9656C1.07713 59.5921 0.875 60.939 0.875 60.958C0.875 60.9771 1.52358 60.9932 2.3163 60.9932C3.10902 60.9932 3.7576 60.9732 3.7576 60.9497C3.7576 60.9258 3.93689 59.7073 4.15609 58.2418C4.85253 53.5853 5.37185 50.0015 5.37185 49.8516C5.37185 49.6452 2.61724 49.6423 2.55279 49.8487ZM5.94838 49.7501C5.94838 49.8219 5.34326 53.8684 4.79568 57.4586C4.54225 59.1202 4.33481 60.5954 4.33458 60.7365C4.33412 60.9917 4.34473 60.9932 6.12136 60.9932C7.29791 60.9932 7.90856 60.9522 7.90856 60.8726C7.90856 60.7321 7.82601 60.551 6.35805 57.4649C5.74832 56.1829 5.27465 55.0684 5.30556 54.9888C5.33646 54.9093 6.25415 53.7522 7.34468 52.4175C8.43527 51.0834 9.37418 49.9317 9.43112 49.859C9.50871 49.7589 9.0865 49.7228 7.74148 49.7126C6.75529 49.7052 5.94838 49.7223 5.94838 49.7501ZM10.0432 49.8487C10.0163 49.9273 9.8897 50.7095 9.76171 51.5875C9.63382 52.4654 9.26835 54.8439 8.9495 56.8725C8.63059 58.9016 8.36977 60.6584 8.36977 60.777C8.36977 60.9766 8.47248 60.9932 9.73738 60.9932H11.1051L11.2988 59.7102C11.5904 57.7802 12.5005 51.9486 12.6824 50.8467C12.7702 50.3133 12.8187 49.8389 12.7899 49.7921C12.695 49.6364 10.0976 49.6906 10.0432 49.8487ZM13.397 50.0058C13.2289 50.7842 12.4066 55.715 12.406 55.9482C12.4054 56.1849 12.4568 56.2044 13.0684 56.2025C14.7082 56.1961 15.516 55.2826 15.9388 52.9558C16.3008 50.9628 15.718 49.9395 14.1145 49.7531C13.4723 49.6784 13.4674 49.6804 13.397 50.0058ZM24.4503 49.9761C22.0931 51.0614 20.685 56.0941 21.8657 59.2139C22.1774 60.0377 22.8304 60.7521 23.3819 60.8731C23.7812 60.9605 23.8121 60.9473 23.8705 60.6662C24.0332 59.883 25.55 50.1361 25.55 49.8736C25.55 49.6286 25.1174 49.6691 24.4503 49.9761ZM26.1915 49.8487C26.1677 49.9273 26.0622 50.6583 25.957 51.4737C25.8516 52.2887 25.7368 53.1237 25.7019 53.3296L25.6384 53.7034L27.1797 53.6717L28.7209 53.6395L28.7553 52.8606C28.8187 51.4206 28.3058 50.3538 27.342 49.9209C26.8015 49.6779 26.2536 49.6437 26.1915 49.8487ZM32.5632 49.7965L31.5627 49.8292L31.1796 50.7652L30.7964 51.7016L30.7639 56.3474L30.7314 60.9932H32.2494H33.7675L33.712 55.4051C33.6814 52.3317 33.6356 49.8053 33.6101 49.7901C33.5845 49.7755 33.1134 49.7784 32.5632 49.7965ZM17.7094 53.0778C17.7094 56.119 17.696 56.3328 17.5076 56.2971C17.3261 56.263 17.3 56.0365 17.2482 54.0426L17.1905 51.8261L15.5453 56.324C14.6405 58.7981 13.9011 60.8604 13.9023 60.9073C13.9034 60.9546 14.6567 60.9932 15.5763 60.9932H17.2482V59.047C17.2482 57.1126 17.2496 57.1014 17.4994 57.1375C17.7456 57.1731 17.7504 57.2092 17.7395 58.9275C17.7335 59.8922 17.7556 60.7516 17.7889 60.837C17.8355 60.9575 18.1765 60.9932 19.2783 60.9932H20.7073V55.4065V49.8204H19.2083H17.7094V53.0778ZM34.5796 50.8179L34.2555 51.8153L34.2229 56.404L34.1904 60.9932H35.6353H37.0805V55.4065V49.8204H35.9921H34.9036L34.5796 50.8179ZM41.3197 53.0397C41.2915 56.0009 41.2729 56.2615 41.0873 56.2971C40.9006 56.3328 40.8851 56.1625 40.8807 54.0187L40.8759 51.7016L40.1223 53.6966C39.7078 54.7941 39.0925 56.4611 38.7549 57.402C38.4174 58.3424 38.0063 59.4643 37.8414 59.8952C37.4636 60.8819 37.465 60.9644 37.8587 60.9297C38.0331 60.9141 38.7856 60.8965 39.5307 60.8902L40.8855 60.879V58.9977C40.8855 57.1926 40.8948 57.117 41.1161 57.117C41.3374 57.117 41.3467 57.1926 41.3467 58.9977V60.879H42.8598H44.373L44.33 55.3499L44.2869 49.8209L42.8187 49.8204H41.3503L41.3197 53.0397ZM46.0224 50.0771C45.9916 50.2181 45.7052 51.9359 45.3861 53.8942C44.6663 58.3111 44.6474 59.3061 45.267 60.1548C45.5554 60.5501 46.2118 60.878 46.7144 60.8785L47.1818 60.879L48.0206 55.5066C48.4821 52.5522 48.887 50.0639 48.9204 49.9775C48.9703 49.8492 48.7154 49.8204 47.53 49.8204C46.1183 49.8204 46.0771 49.8277 46.0224 50.0771ZM49.0825 52.2999C48.5946 55.4441 47.8287 60.1553 47.7388 60.5657L47.6701 60.879H49.0445H50.4188L50.6659 59.3686C50.8016 58.5375 51.198 56.1137 51.5473 53.9816C51.8962 51.8495 52.1826 50.0415 52.1836 49.9629C52.185 49.857 51.8377 49.8204 50.8264 49.8204H49.4672L49.0825 52.2999ZM52.7608 49.9629C52.7603 50.0415 52.6305 50.9008 52.4719 51.8724C52.3139 52.8445 51.9502 55.1274 51.6643 56.9457C51.3784 58.764 51.1148 60.3929 51.0791 60.5657L51.0137 60.879H52.4046C53.7528 60.879 53.7969 60.8712 53.8529 60.6223C53.8851 60.4813 54.1427 59.0065 54.4262 57.3449C55.2665 52.4141 55.6505 50.2318 55.715 50.02C55.77 49.837 55.6496 49.8204 54.2686 49.8204C53.1404 49.8204 52.7618 49.856 52.7608 49.9629ZM30.0859 53.5824C30.0122 53.802 29.4025 55.5183 28.7311 57.3966C28.0597 59.2749 27.5102 60.8526 27.5102 60.9024C27.5102 61.063 30.1624 61.0112 30.225 60.8497C30.2558 60.7706 30.267 59.0138 30.2503 56.9447C30.2257 53.9045 30.1942 53.2603 30.0859 53.5824ZM24.8137 58.7259C24.6411 59.924 24.5259 60.9302 24.5575 60.9619C24.5892 60.9932 24.8754 60.9571 25.1935 60.8814C25.8751 60.7199 26.6219 60.1192 27.1438 59.313C27.456 58.8308 28.0399 57.5123 28.2551 56.8032L28.3329 56.547H26.7302H25.1275L24.8137 58.7259Z" fill="#333333"/>
</g>
<defs>
<clipPath id="clip0_24_57">
<rect width="55" height="61" fill="white" transform="translate(0.875)"/>
</clipPath>
</defs>
</svg>
