<svg width="114" height="61" viewBox="0 0 114 61" fill="none" xmlns="http://www.w3.org/2000/svg">
<g clip-path="url(#clip0_24_63)">
<path fill-rule="evenodd" clip-rule="evenodd" d="M81.0538 0.0447863C79.9737 0.146602 78.604 0.413387 77.6932 0.699314C74.9734 1.55354 73.0054 2.84758 71.6616 4.666C71.4268 4.98429 71.1808 5.22521 71.1147 5.20125C71.0492 5.17744 70.6236 4.90791 70.1682 4.60247C66.8085 2.34704 62.7689 0.85462 58.514 0.297027C56.8298 0.0762227 53.1991 0.0746274 51.5285 0.293836C49.1928 0.600411 46.6334 1.26799 44.5912 2.10353C40.471 3.78907 37.0675 6.29823 34.3072 9.68529C33.858 10.2365 33.8145 10.3229 34.0152 10.2654C35.5373 9.82934 35.66 9.81056 37.1951 9.77957L38.7554 9.74814L39.8145 8.69865C41.7732 6.75787 43.9823 5.20154 46.4584 4.01813C50.2606 2.20093 54.9102 1.29238 58.9621 1.57474C60.9168 1.711 62.0067 1.88019 63.8426 2.33259C65.5763 2.75975 67.1162 3.30721 68.6928 4.05736C69.7636 4.56672 71.0707 5.30188 71.0707 5.39484C71.0707 5.42075 70.7214 5.97649 70.2949 6.62987C69.4403 7.93771 68.2095 9.96828 66.2748 13.2604C65.5772 14.4474 64.8811 15.6211 64.7275 15.8685C64.5739 16.116 64.4482 16.3323 64.4482 16.3493C64.4482 16.3663 64.0109 17.0929 63.4762 17.9639C58.2361 26.5034 54.9313 30.2204 51.7961 31.101L51.3515 31.2259L51.8949 31.1704C54.3232 30.922 57.09 28.7552 60.505 24.4273C61.2006 23.5461 61.5396 23.0918 62.8858 21.2367C63.621 20.2234 65.2505 17.7951 67.9537 13.6826C71.2923 8.60427 73.048 6.2239 74.132 5.30739C75.5535 4.10512 77.7069 3.16917 80.1552 2.68909C81.2431 2.47588 85.339 2.32368 85.5146 2.49005C85.5787 2.55123 84.9672 3.60167 83.7169 5.57569C82.6745 7.22162 81.7974 8.61061 81.768 8.66224C81.5724 9.00428 82.0601 8.34836 83.5198 6.30574C84.438 5.02118 85.7313 3.21684 86.3942 2.2959C87.0565 1.37496 87.5609 0.588304 87.5144 0.547765C87.3936 0.442384 85.9128 0.184701 84.8102 0.0770669C83.9263 -0.00926522 81.8194 -0.0273762 81.0538 0.0447863ZM35.154 11.5438C33.452 11.9138 32.1159 12.8444 31.4933 14.0937C31.0697 14.9433 30.4051 16.8588 30.1545 17.9524C29.8506 19.2777 29.556 21.588 29.556 22.6443C29.556 24.441 30.0276 27.2197 30.6551 29.1193C31.8414 32.7112 33.6782 35.5838 36.6171 38.4436C40.1357 41.8673 44.2185 43.9955 49.3561 45.0838C52.322 45.7122 56.4017 45.8023 59.4537 45.307C63.5608 44.6404 68.1635 42.6973 71.4058 40.2613C72.209 39.658 74.7009 37.3666 74.628 37.2985C74.6016 37.2736 74.2014 37.3989 73.7396 37.5769C72.2927 38.1342 70.9044 38.4694 68.0559 38.9489C67.1304 39.1048 62.177 39.1036 61.2358 38.9473C58.626 38.514 58.2361 38.4391 56.9853 38.1294C53.8546 37.3545 50.3814 35.8686 47.6446 34.1337C45.5671 32.8168 43.3674 30.9504 41.7894 29.1662C39.6962 26.7991 38.0518 23.7883 37.3558 21.0482C37.0865 19.9883 37.0563 18.1096 37.2924 17.0951C37.7772 15.0114 39.2126 12.8908 40.5059 12.3476L40.9719 12.1519L40.4285 11.9763C38.6948 11.4156 36.5518 11.2398 35.154 11.5438ZM80.5074 15.0958C78.8119 15.2199 77.52 15.5029 76.5568 15.961C75.1935 16.6093 72.6644 18.9147 69.6369 22.2685C68.0016 24.0801 67.2248 24.9036 63.2399 29.0498C60.525 31.8754 59.0467 32.7704 56.3802 33.2032C54.7278 33.4714 52.5294 33.4491 50.8569 33.147C50.4098 33.0662 52.9868 34.5181 54.7121 35.319C60.8958 38.1898 69.0083 38.829 74.2161 36.8558C75.2497 36.4642 76.3015 35.9167 77.0333 35.3889C78.5982 34.261 81.7529 31.5484 85.6829 27.9523L88.0877 25.7518L87.6103 25.5205C87.0555 25.2518 85.7925 24.832 84.7197 24.5602C83.4175 24.2302 82.4245 24.0991 81.2255 24.0989L80.0632 24.0988L82.2205 21.5417C85.0269 18.2153 87.2052 15.5497 87.1553 15.5025C87.0781 15.4288 84.866 15.1849 83.4425 15.093C81.8629 14.991 81.9392 14.9909 80.5074 15.0958ZM0.864995 46.8314C0.472878 47.1142 0.372255 48.0691 0.683516 48.5538C0.929046 48.9362 1.12328 48.9664 3.32514 48.9664H5.1414V53.3247V57.6826L5.37992 57.9461C5.61606 58.2067 5.63059 58.2096 6.77253 58.2096C7.86603 58.2096 7.93643 58.1979 8.11547 57.9881C8.29553 57.7768 8.30444 57.5586 8.30444 53.3716V48.9767L10.3889 48.9479L12.4734 48.9196L12.7219 48.6449C12.9452 48.3983 12.9666 48.3058 12.9327 47.7368C12.8661 46.6176 13.4477 46.7141 6.7759 46.7141C2.33007 46.7141 0.990826 46.7407 0.864995 46.8314ZM85.3077 46.8956C85.2515 46.9955 85.2055 47.6016 85.2055 48.2426V49.4081L84.457 49.4681C81.6379 49.694 80.0853 51.2327 80.0853 53.7991C80.0853 56.1566 81.451 57.7148 83.8216 58.0608C84.2296 58.1203 84.7075 58.1906 84.8841 58.2169L85.2055 58.2648V59.4335C85.2055 60.979 85.1908 60.9639 86.6882 60.9639C88.1856 60.9639 88.1709 60.979 88.1709 59.4335V58.2648L88.4923 58.2164C88.6689 58.1901 88.9912 58.1476 89.2089 58.1227C90.449 57.9798 91.4983 57.525 92.1763 56.8369C93.0568 55.9429 93.4545 54.5086 93.2329 53.0217C92.913 50.873 91.4542 49.6716 88.9193 49.4681L88.1709 49.4081V48.2426C88.1709 47.6016 88.1249 46.9955 88.0686 46.8956C87.9752 46.7305 87.8505 46.7141 86.6882 46.7141C85.5259 46.7141 85.4012 46.7305 85.3077 46.8956ZM17.1278 49.3866C16.8431 49.4627 16.3761 49.6418 16.0899 49.7848C15.8037 49.9273 15.5361 50.0586 15.4954 50.0761C15.4546 50.0937 15.4212 50 15.4212 49.8677C15.4212 49.4446 15.0677 49.3187 13.9826 49.3558C13.1806 49.3836 13.011 49.4168 12.8926 49.5706C12.7755 49.7228 12.7524 50.6427 12.7524 55.1777C12.7524 61.651 12.5826 60.9946 14.2513 60.9712C15.7523 60.9497 15.7178 60.9893 15.7178 59.2866V57.9715L15.9896 58.033C16.1391 58.0671 16.347 58.1364 16.4516 58.1877C16.741 58.3287 18.6588 58.3848 19.2999 58.2701C20.8062 58.0017 21.9457 57.0365 22.4287 55.6193C22.8706 54.3222 22.7644 52.5166 22.1771 51.3376C21.8259 50.6329 21.0927 49.9551 20.3002 49.6032C19.7219 49.3461 19.514 49.3056 18.6421 49.2792C17.9746 49.2587 17.4743 49.2943 17.1278 49.3866ZM27.1811 49.3412C25.524 49.591 24.6344 50.223 24.4627 51.2712C24.3791 51.7827 24.544 51.9593 25.1724 52.0296C26.0951 52.1335 26.74 51.9988 27.2227 51.6026C27.74 51.1775 28.374 50.9921 29.1137 51.0507C29.9447 51.116 30.4716 51.5665 30.5831 52.3077L30.6411 52.6928L28.6406 52.7474C26.4048 52.8079 25.7483 52.9368 24.9109 53.4794C23.7813 54.2114 23.4507 55.5334 24.0928 56.7515C24.6198 57.7509 25.6735 58.2482 27.4308 58.3258C28.6901 58.3814 29.4811 58.2326 30.3214 57.7826C30.8103 57.5206 30.841 57.5152 30.841 57.6923C30.841 57.7963 30.93 57.9656 31.0387 58.0686C31.208 58.2296 31.3681 58.2565 32.1534 58.2565C32.8279 58.2565 33.1293 58.2174 33.2926 58.1086L33.5148 57.9607L33.507 54.9527C33.5 52.2365 33.481 51.8993 33.3115 51.4757C32.9189 50.4948 32.3039 49.9385 31.1479 49.5193C30.694 49.3549 30.3348 49.3129 29.1606 49.2885C28.3724 49.2719 27.4816 49.2958 27.1811 49.3412ZM50.4617 49.3319C48.9162 49.6198 47.8859 50.3406 47.2977 51.547C46.9017 52.359 46.8357 52.6972 46.8413 53.8894C46.852 56.119 47.717 57.3981 49.679 58.0852C50.1941 58.2652 50.4709 58.2906 51.9938 58.2965C53.4065 58.3018 53.8321 58.2716 54.3164 58.1311C55.8245 57.6923 56.5583 56.995 56.7026 55.8633C56.7843 55.2245 56.616 55.1128 55.575 55.1128C54.5786 55.1128 54.3266 55.2021 53.9847 55.6759C53.6212 56.1795 52.9927 56.4182 52.0441 56.4123C51.1382 56.4069 50.7997 56.281 50.333 55.7764C49.9436 55.3558 49.8663 54.9942 49.8786 53.658C49.8888 52.522 49.996 52.1272 50.4074 51.7119C50.7889 51.3269 51.1964 51.1936 51.9923 51.1936C52.8772 51.1936 53.4124 51.4059 53.8428 51.9286C54.2547 52.4283 54.5365 52.5322 55.4826 52.5322C56.5265 52.5322 56.7016 52.4044 56.6033 51.7129C56.4551 50.671 55.7746 49.9936 54.4387 49.5579C53.835 49.3612 53.4994 49.3197 52.2902 49.2914C51.5021 49.2734 50.6793 49.2914 50.4617 49.3319ZM73.0475 49.3065C70.4768 49.7804 69.1145 51.6109 69.3302 54.3012C69.4574 55.8882 70.0434 56.9252 71.2189 57.6445C72.1484 58.2135 72.6023 58.3033 74.5302 58.3023C76.0359 58.3014 76.3504 58.274 76.9579 58.094C77.8419 57.8309 78.3996 57.4488 78.6686 56.9213C78.9015 56.465 78.9445 55.9155 78.7611 55.7413C78.6843 55.6686 78.2866 55.6291 77.635 55.6291H76.6278L76.166 55.9912C75.6176 56.4211 75.1583 56.568 74.3707 56.5651C73.7127 56.5626 73.1238 56.3464 72.7623 55.9736C72.5554 55.7603 72.1997 54.8073 72.2936 54.718C72.3132 54.6994 73.7969 54.6848 75.5912 54.6853C79.5388 54.6858 79.2346 54.8 79.148 53.3477C79.0575 51.8315 78.5585 50.8413 77.5269 50.1308C76.6341 49.5159 75.9586 49.3266 74.5302 49.2914C73.8507 49.2743 73.1834 49.2812 73.0475 49.3065ZM35.8563 49.5286L35.5855 49.7306V53.8059C35.5855 58.701 35.4395 58.2565 37.0462 58.2565C38.6195 58.2565 38.5509 58.3443 38.5509 56.3274V54.6906H40.4289H42.307V56.3274C42.307 58.3385 42.2448 58.2565 43.7687 58.2565C44.331 58.2565 44.8771 58.2125 44.9823 58.1594C45.1669 58.0652 45.1734 57.9183 45.1734 53.8449V49.6276L44.9298 49.4759C44.6167 49.2812 42.729 49.3129 42.4702 49.5174C42.3303 49.6276 42.307 49.8726 42.307 51.2298V52.8138H40.4289H38.5509V51.2298C38.5509 49.8726 38.5275 49.6276 38.3878 49.5174C38.2785 49.431 37.8775 49.3783 37.1758 49.3573C36.2237 49.329 36.1021 49.3446 35.8563 49.5286ZM58.5174 49.4066C58.1295 49.5383 58.1222 49.6198 58.1222 53.8586V57.9642L58.3418 58.1101C58.6412 58.3097 60.5632 58.3194 60.8464 58.1232C61.0215 58.0012 61.0401 57.8519 61.0597 56.364L61.0812 54.7375H62.922H64.7628L64.7495 56.3054C64.7324 58.3145 64.6894 58.2565 66.2053 58.2565C67.0095 58.2565 67.3246 58.2204 67.4904 58.1101L67.71 57.9642V53.8054C67.71 50.0542 67.6939 49.6335 67.5472 49.5174C67.4376 49.431 67.0364 49.3783 66.335 49.3573C65.3781 49.329 65.2622 49.3441 65.0113 49.5315L64.7363 49.737L64.75 51.2517L64.7632 52.767H62.9151H61.0675L61.0817 51.3923C61.0988 49.7999 61.0607 49.5906 60.729 49.4471C60.4859 49.3422 58.7992 49.3109 58.5174 49.4066ZM93.7309 49.4852C93.5323 49.6179 93.5083 49.713 93.5083 50.3675C93.5083 50.8608 93.5513 51.1351 93.6389 51.2044C93.7167 51.2659 94.3624 51.3176 95.2449 51.3332L96.7207 51.3591L96.7701 54.7175C96.8122 57.5655 96.8425 58.0891 96.9682 58.1647C97.0494 58.2135 97.5846 58.254 98.1569 58.255C98.9406 58.256 99.2517 58.2204 99.4171 58.1101L99.6367 57.9642V54.6384V51.3122H101.113C102.894 51.3122 102.899 51.3098 102.899 50.385C102.899 49.3046 103.296 49.3924 98.2856 49.3627C94.4651 49.3397 93.927 49.3544 93.7309 49.4852ZM104.465 49.4007C104.105 49.4998 104.078 49.8453 104.106 53.9738C104.133 57.8651 104.141 57.9944 104.332 58.1296C104.5 58.2482 104.99 58.2628 107.594 58.2282C109.279 58.2062 110.813 58.1574 111.004 58.1203C112.031 57.9207 112.834 57.3258 113.184 56.5065C113.368 56.0771 113.393 55.8711 113.357 55.0893C113.311 54.0836 113.133 53.6229 112.619 53.1827C111.803 52.482 111.186 52.3443 108.858 52.3443H107.05V51.0487C107.05 49.3441 107.09 49.3934 105.699 49.3719C105.11 49.3632 104.555 49.3758 104.465 49.4007ZM75.0555 51.1668C75.2634 51.2371 75.5159 51.3654 75.6171 51.4528C75.871 51.6709 76.1347 52.2248 76.186 52.6479L76.2291 53.0012H74.2303H72.2315L72.299 52.6025C72.4282 51.8334 72.8396 51.3713 73.6408 51.0965C73.9187 51.0009 74.6779 51.0389 75.0555 51.1668ZM18.6991 51.3703C19.4069 51.709 19.7012 52.5073 19.6554 53.9645C19.6271 54.8629 19.5856 55.0884 19.375 55.488C18.938 56.3176 18.1829 56.5753 16.7891 56.3718C15.6172 56.2 15.71 56.4138 15.7406 53.9591L15.7672 51.8285L16.4097 51.5279C17.293 51.1151 18.0553 51.0624 18.6991 51.3703ZM85.3043 53.8098V56.4948L84.8362 56.4279C83.9576 56.303 83.4718 55.9024 83.1774 55.061C82.9362 54.3705 83.0052 52.7323 83.2982 52.2038C83.6171 51.6275 84.031 51.34 84.7608 51.1878C85.3439 51.0658 85.3043 50.875 85.3043 53.8098ZM89.1297 51.3225C89.5567 51.4508 89.9911 51.9427 90.1971 52.5312C90.4265 53.1871 90.3732 54.8619 90.107 55.3475C89.7323 56.0307 89.3165 56.3176 88.5402 56.4279L88.0721 56.4948V53.7991V51.1038L88.4429 51.1658C88.6464 51.2 88.9555 51.2703 89.1297 51.3225ZM109.809 54.2095C110.221 54.3188 110.461 54.7326 110.455 55.3202C110.45 55.7852 110.415 55.8701 110.132 56.1102C109.815 56.3796 109.815 56.3796 108.433 56.3796H107.05V55.2533V54.1275L108.31 54.1368C109.003 54.1421 109.678 54.1748 109.809 54.2095ZM30.6232 55.2299L30.5939 55.8633L30.0996 56.0883C28.3374 56.8906 26.6895 56.6417 26.6895 55.5739C26.6895 55.2465 26.9996 54.8117 27.321 54.6887C27.4358 54.6448 28.2323 54.6057 29.0911 54.6023L30.6523 54.5965L30.6232 55.2299Z" fill="#333333"/>
<path d="M81.2647 23.7108C83.5061 23.7108 87.1348 24.9832 88.6694 25.6194C88.6694 25.6194 77.6624 40.1215 65.4545 38.2164C61.3463 37.5752 57.249 36.6258 56.2481 35.926C67.2556 35.926 73.6594 23.7108 81.2647 23.7108Z" fill="#333333"/>
</g>
<defs>
<clipPath id="clip0_24_63">
<rect width="113" height="61" fill="white" transform="translate(0.5)"/>
</clipPath>
</defs>
</svg>
