<svg width="124" height="59" viewBox="0 0 124 59" fill="none" xmlns="http://www.w3.org/2000/svg">
<g clip-path="url(#clip0_24_86)">
<path fill-rule="evenodd" clip-rule="evenodd" d="M38.3006 38.574H46.1688V41.1191H42.4255V59H38.3006V38.574Z" fill="#333333"/>
<path fill-rule="evenodd" clip-rule="evenodd" d="M50.8358 51.3309L51.5431 41.1191H51.7789L52.4862 51.3309H50.8358ZM46.266 59H50.3059L50.6875 53.5754H52.6321L53.0161 59H57.0535L54.9023 38.574H48.4172L46.266 59Z" fill="#333333"/>
<path fill-rule="evenodd" clip-rule="evenodd" d="M62.965 51.8505V55.7019C62.965 56.2215 63.3709 56.3707 63.6067 56.3707C63.9956 56.3707 64.2654 56.0531 64.2654 55.7019V50.946C64.2654 50.3109 64.1463 49.6061 62.6077 49.6061H60.9329V47.3617H62.6757C63.8425 47.3617 64.2654 47.0946 64.2654 45.8389V41.7879C64.2654 41.4367 63.9956 41.1191 63.6067 41.1191C63.3709 41.1191 62.965 41.2538 62.965 41.7879V45.1196H58.8376V42.2233C58.8376 40.7992 59.0078 38.574 61.9003 38.574H65.3179C68.2104 38.574 68.3976 40.8016 68.3976 42.2233V45.4877C68.3976 47.7153 66.8249 48.3167 65.5901 48.2662V48.4682C68.3636 48.4009 68.3976 50.5106 68.3976 51.2299V55.3483C68.3976 56.7893 68.2104 58.9976 65.3179 58.9976H61.9003C59.0078 58.9976 58.8376 56.7868 58.8376 55.3483V51.8481H62.965V51.8505Z" fill="#333333"/>
<path fill-rule="evenodd" clip-rule="evenodd" d="M71.1006 38.574H80.6581V59H76.5308V41.1191H75.2279V59H71.1006V38.574Z" fill="#333333"/>
<path fill-rule="evenodd" clip-rule="evenodd" d="M87.4932 49.8082V41.1191H88.0353C88.4752 41.1191 88.7961 41.4871 88.7961 42.1415V48.7882C88.7961 49.4401 88.4752 49.8106 88.0353 49.8106H87.4932V49.8082ZM83.3659 59H87.4932V52.0526H89.8608C92.7363 52.0526 92.9234 49.8418 92.9234 48.4033V42.2257C92.9234 40.8015 92.7363 38.5764 89.8608 38.5764H83.3659V59Z" fill="#333333"/>
<path fill-rule="evenodd" clip-rule="evenodd" d="M101.061 55.7019C101.061 56.0531 100.792 56.3707 100.403 56.3707C100.167 56.3707 99.761 56.2191 99.761 55.7019V41.7903C99.761 41.2538 100.167 41.1215 100.403 41.1215C100.792 41.1215 101.061 41.4391 101.061 41.7903V55.7019ZM95.6312 55.3483C95.6312 56.7893 95.8184 58.9976 98.6939 58.9976H102.129C105.004 58.9976 105.191 56.7868 105.191 55.3483V42.2233C105.191 40.7992 105.004 38.574 102.129 38.574H98.6939C95.8184 38.574 95.6312 40.8016 95.6312 42.2233V55.3483Z" fill="#333333"/>
<path fill-rule="evenodd" clip-rule="evenodd" d="M118.621 38.574H124V59H119.873V46.1925H119.72L117.588 59H114.289L112.175 46.1925H112.021V59H107.894V38.574H113.256L115.947 52.9379L118.621 38.574Z" fill="#333333"/>
<path fill-rule="evenodd" clip-rule="evenodd" d="M32.9506 10.6472C31.6867 5.17447 28.5195 0.719278 28.0844 0C27.3941 1.02238 24.8686 4.95556 23.5851 9.30971C22.1826 14.1811 21.976 18.5015 22.4597 22.7378C22.941 26.9909 24.7543 31.3595 24.7543 31.3595C25.7193 33.6352 27.1631 36.0986 28.1038 37.3038C29.482 35.5285 32.6517 30.2385 33.6385 23.3416C34.1879 19.4879 34.2122 16.1224 32.9506 10.6472ZM28.0844 35.9278C27.4645 34.7731 26.4996 32.5792 26.4072 29.1632C26.3829 25.882 27.7149 23.053 28.1038 22.466C28.4514 23.053 29.5987 25.5139 29.7348 28.8794C29.8272 32.1606 28.7236 34.7563 28.0844 35.9278ZM32.5836 19.9401C32.5374 22.033 32.2846 24.2437 31.9638 25.5644C32.078 23.2863 31.8034 20.0893 31.2759 17.5778C30.7484 15.0832 29.2535 10.8974 28.0625 8.97293C26.9614 10.8156 25.6051 14.4313 24.8929 17.561C24.1782 20.6907 24.1588 24.4915 24.1588 25.6318C23.9692 24.6768 23.4952 21.2464 23.6289 17.8135C23.7407 14.9845 24.4116 12.0545 24.7786 10.7146C26.1787 6.24496 27.7635 3.38229 28.0625 2.93003C28.359 3.38229 30.3571 6.91372 31.3926 10.6136C32.4183 14.3134 32.6274 17.8641 32.5836 19.9401Z" fill="#333333"/>
<path fill-rule="evenodd" clip-rule="evenodd" d="M30.2258 38.574H20.6197V44.9536C20.627 44.9536 20.6343 44.9368 20.644 44.9368C22.907 42.6924 26.5773 42.6924 28.8427 44.9368C31.1057 47.1644 31.1057 50.7969 28.8427 53.0389C28.833 53.0557 28.8233 53.0557 28.8111 53.0726C28.799 53.0726 28.7868 53.0894 28.7771 53.1063C26.519 55.317 23.5681 56.4212 20.6172 56.4212C17.6542 56.4212 14.6888 55.317 12.4306 53.0726C8.44427 49.1394 7.97271 43.0268 11.0111 38.574C11.4195 37.9702 11.8934 37.4024 12.4306 36.866C14.6912 34.6216 17.6542 33.5174 20.6172 33.5174V18.1816C9.23182 18.1816 0 27.3061 0 38.574C0 49.8419 9.23182 58.9832 20.6197 58.9832C26.5579 58.9832 31.9054 56.4886 35.6682 52.5217V38.5764H30.2258V38.574Z" fill="#333333"/>
</g>
<defs>
<clipPath id="clip0_24_86">
<rect width="124" height="59" fill="white"/>
</clipPath>
</defs>
</svg>
