<svg width="59" height="61" viewBox="0 0 59 61" fill="none" xmlns="http://www.w3.org/2000/svg">
<g clip-path="url(#clip0_24_61)">
<path fill-rule="evenodd" clip-rule="evenodd" d="M27.9722 2.81983C27.065 4.40462 26.212 5.89948 26.0765 6.14158L25.8304 6.5818L26.6761 7.11924C27.7077 7.77487 28.9686 8.975 29.4263 9.73687C30.1177 10.8879 30.4024 12.4283 30.2213 14.0379C30.1146 14.9864 29.7938 16.3274 29.6735 16.3274C29.6371 16.3274 29.5428 16.1676 29.4638 15.9723C29.2468 15.4363 28.0262 13.3553 27.3825 12.4239C27.0693 11.9707 26.5872 11.3657 26.3113 11.0794C25.9671 10.7223 25.8922 10.6679 26.0725 10.9059C27.6569 12.9984 28.9238 15.3571 29.7188 17.6938C29.9419 18.3497 30.1451 18.9441 30.1702 19.0147C30.2011 19.1012 30.309 19.0021 30.5007 18.7111L30.7851 18.2791L30.8508 19.7878C30.887 20.6176 30.9317 21.3111 30.9499 21.3289C30.9683 21.3466 31.4417 21.4009 32.0021 21.4496C36.2551 21.8182 40.1138 23.0744 43.3968 25.1592L44.4781 25.8459L44.1513 25.2721C41.7902 21.1244 29.7178 0.0468287 29.6768 0.000681461C29.6465 -0.0336688 28.8793 1.23495 27.9722 2.81983ZM18.4996 4.24076C18.5001 4.28076 18.5578 4.49666 18.6279 4.72045C18.8793 5.52489 19.1254 7.29838 19.2573 9.2578C19.4096 11.5181 19.4303 11.6865 19.6728 12.6293C19.9579 13.7374 20.5918 15.113 20.8175 15.113C20.8509 15.113 21.0189 14.869 21.1906 14.5708C23.4128 10.7133 25.6511 6.79233 25.6961 6.67843C25.8302 6.33917 22.4777 5.01054 20.1966 4.49883C18.9671 4.22307 18.4984 4.15177 18.4996 4.24076ZM25.6035 10.3421C25.6924 10.4375 25.7853 10.5156 25.8099 10.5156C25.8344 10.5156 25.7817 10.4375 25.6928 10.3421C25.6039 10.2467 25.5109 10.1686 25.4863 10.1686C25.4618 10.1686 25.5145 10.2467 25.6035 10.3421ZM17.8263 20.5466C15.1406 25.2381 14.5528 26.2974 14.8038 25.9949C14.9386 25.8325 16.2876 24.9524 17.1688 24.4521C19.0637 23.3762 21.5557 22.4574 23.9948 21.9352C25.3869 21.6372 27.7967 21.3584 28.9802 21.3584H29.6001L29.5588 20.1224C29.5267 19.162 29.4727 18.7509 29.3172 18.2791C29.2069 17.9451 29.0895 17.6438 29.0562 17.6094C29.023 17.5751 28.7754 17.6058 28.5061 17.6777C28.2367 17.7496 27.574 17.8312 27.0333 17.8591C24.8694 17.9709 22.8827 17.2736 21.4367 15.8949L20.8237 15.3104L17.8263 20.5466ZM30.9209 24.9185V26.4836L30.3316 26.7402C30.0076 26.8813 29.7261 26.9967 29.7061 26.9967C29.6861 26.9967 29.6697 26.2107 29.6697 25.2499V23.5031L29.1071 23.559C26.5924 23.8091 25.087 25.0291 25.3325 26.6181C25.4502 27.38 26.4763 28.0903 28.5526 28.8472C29.6939 29.2633 30.8702 29.5886 33.7806 30.2931C38.0299 31.3215 39.6793 31.8317 41.1402 32.5694C42.935 33.4758 43.9977 35.0808 43.9981 36.8854C43.9986 39.9064 41.0919 42.0012 35.7914 42.7997C34.1319 43.0497 30.3991 43.1132 28.5482 42.9229C25.114 42.57 22.087 41.7656 21.7255 41.11C21.5574 40.8051 21.6356 40.4414 21.9121 40.2419C22.1231 40.0896 22.3559 40.06 23.789 40.0025C27.6141 39.8491 29.5046 39.1631 30.0714 37.7228C30.2115 37.3669 30.2186 37.2511 30.1262 36.8501C29.8392 35.6055 28.8535 35.0701 21.0903 31.9423C20.4759 31.6948 19.2896 31.1666 18.454 30.7685C16.8648 30.0114 16.3644 29.6522 16.1252 29.0966C15.9591 28.7107 15.9608 28.0706 16.1291 27.6076L16.2618 27.2425L15.6599 27.5625C13.2649 28.8358 11.4369 31.0208 10.6972 33.4943C10.5312 34.0493 10.5012 34.358 10.5063 35.4542C10.5118 36.6066 10.5401 36.8446 10.7537 37.536C11.5437 40.0933 13.4596 42.3862 16.3698 44.2575C23.3167 48.7246 32.8717 49.3085 40.4385 45.7282C42.6338 44.6896 44.3148 43.5155 45.8019 41.9821C47.747 39.9766 48.7142 37.7986 48.72 35.4108C48.7229 34.2209 48.5569 33.4341 48.0723 32.3395C47.2835 30.558 46.0347 29.0232 44.2136 27.5971C42.2398 26.0512 40.3349 25.0242 38.1466 24.326C35.9088 23.612 34.3257 23.3555 32.1497 23.3542L30.9209 23.3535V24.9185ZM4.91468 42.9568C2.57993 47.0329 0.656279 50.3987 0.639925 50.4358C0.623481 50.4734 6.0727 50.4997 12.7493 50.4948C20.3774 50.489 24.739 50.4558 24.4863 50.406C19.9024 49.4983 16.1017 47.6629 13.3258 45.0165C10.74 42.5514 9.3595 39.7632 9.2151 36.7144L9.15965 35.5459L4.91468 42.9568ZM50.0115 36.4915C49.8964 38.2201 49.468 39.7485 48.6624 41.3055C47.4812 43.5883 45.3254 45.8095 42.7285 47.4193C40.6887 48.6838 37.8532 49.7838 35.2436 50.3231C34.4513 50.4865 34.458 50.4865 46.5028 50.4953C57.1585 50.5031 58.549 50.489 58.5035 50.3743C58.4755 50.303 57.217 48.0881 55.7075 45.4518C52.7595 40.3043 50.4093 36.1844 50.2018 35.8C50.0807 35.5756 50.07 35.6145 50.0115 36.4915ZM0.625 56.9667V61H5.85305H11.0811V59.1783V57.3566H8.66815H6.2552V58.5712V59.7854H5.6296H5.00405V57.1834V54.5808H5.6296H6.2552V55.6217V56.6627H8.66815H11.0811V54.798V52.9329H5.85305H0.625V56.9667ZM12.511 56.9667V61L14.7228 60.9985L16.9347 60.9971L17.6922 59.0831C18.1087 58.0305 18.4808 57.1507 18.5189 57.1277C18.5569 57.1048 18.588 57.9671 18.588 59.0431V61H20.7775H22.9671V56.9667V52.9329H20.7934H18.6199L17.8366 54.8195C17.4058 55.857 17.0167 56.7432 16.9717 56.7886C16.9223 56.8383 16.89 56.0936 16.89 54.902V52.9329H14.7005H12.511V56.9667ZM24.3969 56.9667V61H29.625H34.8531V58.2252V55.451L31.9263 55.428L28.9994 55.4051L28.972 55.0366L28.9445 54.6677H31.8988H34.8531V53.8005V52.9329H29.625H24.3969V56.9667ZM36.283 55.3616V57.7904H39.2767H42.2706V58.7879V59.7854H41.6897H41.1088V59.1783V58.5712H38.6959H36.283V59.7854V61H41.511H46.739V56.9667V52.9329H44.5048H42.2706V54.5808V56.2293H41.6897H41.1088V54.5808V52.9329H38.6959H36.283V55.3616ZM48.0796 56.9667V61H50.4478H52.816V59.7854V58.5712H55.7205H58.625V55.752V52.9329H53.3525H48.0796V56.9667ZM53.978 55.752V56.9233H53.397H52.816V55.752V54.5808H53.397H53.978V55.752ZM30.2059 58.4409V59.7854H29.5803H28.9548V58.4409V57.0965H29.5803H30.2059V58.4409Z" fill="#333333"/>
</g>
<defs>
<clipPath id="clip0_24_61">
<rect width="58" height="61" fill="white" transform="translate(0.625)"/>
</clipPath>
</defs>
</svg>
