<svg width="100" height="63" viewBox="0 0 100 63" fill="none" xmlns="http://www.w3.org/2000/svg">
<g clip-path="url(#clip0_24_71)">
<path fill-rule="evenodd" clip-rule="evenodd" d="M50.2499 9.52709L50.5192 9.45238C37.1232 13.6162 26.5242 20.7495 26.3061 25.9887C26.0728 31.5968 37.8209 32.9119 52.5396 28.9285C67.2582 24.9451 79.3828 17.1663 79.6153 11.5587C79.7357 8.65323 76.6355 6.90107 71.5749 6.43988C77.7607 6.7166 81.6356 8.52243 81.6356 11.7462C81.6356 17.8907 67.5811 26.8612 50.2499 31.782C32.9187 36.7027 18.8642 35.7061 18.8642 29.5618C18.8642 23.4174 32.9187 14.4467 50.2499 9.52765" fill="#333333"/>
<path fill-rule="evenodd" clip-rule="evenodd" d="M25.6735 41.8343L69.183 0L65.2392 32.8861L58.0449 24.6357L25.6735 41.8343Z" fill="#333333"/>
<path d="M8.43066 55.8029C8.43066 57.5705 7.16086 59.2769 4.96276 59.2769H2.73242V62.7514H0.75V52.3284H4.46619C7.17615 52.3284 8.43066 53.786 8.43066 55.8029ZM6.44842 55.8029C6.44842 54.8251 5.67483 54.3138 4.71447 54.3138H2.73242V57.2916H4.71447C5.67538 57.2916 6.44842 56.6712 6.44842 55.8029Z" fill="#333333"/>
<path d="M20.6372 57.5382C20.6376 58.6183 20.3181 59.6742 19.7193 60.5724C19.1204 61.4706 18.2691 62.1708 17.2729 62.5844C16.2767 62.998 15.1804 63.1064 14.1227 62.8959C13.065 62.6854 12.0934 62.1655 11.3307 61.4019C10.5681 60.6383 10.0486 59.6653 9.83813 58.606C9.62761 57.5467 9.73547 56.4487 10.1481 55.4508C10.5607 54.453 11.2594 53.6 12.1561 52.9999C13.0527 52.3999 14.1068 52.0796 15.1852 52.0796C16.6301 52.0819 18.0152 52.6577 19.0371 53.6808C20.059 54.704 20.6344 56.091 20.6372 57.5382ZM18.6548 57.5382C18.6546 56.8511 18.4509 56.1795 18.0697 55.6083C17.6884 55.0371 17.1466 54.592 16.5127 54.3291C15.8789 54.0663 15.1815 53.9976 14.5087 54.1317C13.8358 54.2658 13.2178 54.5967 12.7327 55.0826C12.2477 55.5685 11.9173 56.1875 11.7834 56.8613C11.6496 57.5352 11.7182 58.2337 11.9807 58.8685C12.2431 59.5034 12.6876 60.046 13.2579 60.4278C13.8283 60.8097 14.4988 61.0136 15.1848 61.0138C15.6408 61.0147 16.0925 60.9255 16.5139 60.7511C16.9353 60.5768 17.3182 60.3208 17.6406 59.9979C17.963 59.675 18.2186 59.2915 18.3926 58.8694C18.5667 58.4473 18.6557 57.9949 18.6548 57.5382Z" fill="#333333"/>
<path d="M30.1618 59.9442L30.9201 61.7443C29.9785 62.5499 28.7822 62.9951 27.5439 63.0008C24.4928 63.0008 21.9998 60.5493 21.9998 57.5403C21.9998 54.5313 24.4928 52.0816 27.5439 52.0816C28.7054 52.0816 30.038 52.5155 30.9201 53.3222L30.161 55.1216C29.4703 54.4443 28.5418 54.0657 27.5752 54.0673C25.593 54.0673 23.9822 55.6169 23.9822 57.5403C23.9822 59.4636 25.593 61.0158 27.5752 61.0158C28.0561 61.0201 28.5329 60.9274 28.9772 60.7433C29.4216 60.5592 29.8244 60.2874 30.1618 59.9442Z" fill="#333333"/>
<path d="M41.91 62.7514H39.401L35.4666 58.1913V62.7514H33.4847V52.3284H35.4666V56.6406L39.1533 52.3284H41.6625L37.2009 57.3069L41.91 62.7514Z" fill="#333333"/>
<path d="M53.2253 57.5382C53.2257 58.6183 52.9062 59.6743 52.3073 60.5725C51.7084 61.4708 50.857 62.1709 49.8607 62.5845C48.8645 62.998 47.7681 63.1064 46.7104 62.8958C45.6527 62.6852 44.6811 62.1652 43.9184 61.4015C43.1558 60.6378 42.6365 59.6647 42.4261 58.6054C42.2157 57.546 42.3237 56.4479 42.7365 55.4501C43.1492 54.4522 43.8482 53.5994 44.745 52.9994C45.6417 52.3995 46.696 52.0793 47.7744 52.0796C49.2192 52.0819 50.6042 52.6577 51.6259 53.6809C52.6476 54.7041 53.2228 56.0911 53.2253 57.5382ZM51.2434 57.5382C51.2432 56.8511 51.0396 56.1795 50.6583 55.6082C50.2769 55.037 49.7351 54.5919 49.1012 54.3291C48.4673 54.0663 47.7698 53.9976 47.097 54.1318C46.4241 54.266 45.8061 54.597 45.3211 55.0829C44.836 55.5689 44.5058 56.188 44.372 56.8619C44.2382 57.5358 44.307 58.2344 44.5696 58.8692C44.8322 59.504 45.2768 60.0466 45.8473 60.4283C46.4177 60.81 47.0884 61.0138 47.7744 61.0138C48.2303 61.0145 48.6818 60.9251 49.103 60.7507C49.5243 60.5763 49.907 60.3203 50.2293 59.9974C50.5515 59.6745 50.8069 59.291 50.9809 58.869C51.1548 58.447 51.2438 57.9948 51.2429 57.5382H51.2434Z" fill="#333333"/>
<path d="M62.7493 59.9441L63.5084 61.7435C62.5668 62.549 61.3708 62.9942 60.1325 63C57.0815 63 54.5885 60.5485 54.5885 57.5395C54.5885 54.5305 57.0815 52.0808 60.1325 52.0808C61.2942 52.0808 62.6254 52.5147 63.5084 53.3214L62.7493 55.1208C62.0587 54.4436 61.1303 54.065 60.1639 54.0665C58.1816 54.0665 56.5705 55.6162 56.5705 57.5395C56.5705 59.4629 58.1816 61.015 60.1639 61.015C60.6445 61.0193 61.121 60.9266 61.5652 60.7427C62.0094 60.5587 62.4121 60.2871 62.7493 59.9441Z" fill="#333333"/>
<path d="M77.5028 62.7514H75.3964L74.5294 55.9268L71.8047 62.7514H70.8138L68.0878 55.9268L67.2205 62.7514H65.1139L66.6009 52.3284H68.5829L71.3089 59.0294L74.0349 52.3284H76.0171L77.5028 62.7514Z" fill="#333333"/>
<path d="M89.4664 57.5382C89.4668 58.6183 89.1473 59.6742 88.5485 60.5724C87.9496 61.4706 87.0983 62.1708 86.1021 62.5844C85.1059 62.998 84.0096 63.1064 82.9519 62.8959C81.8942 62.6854 80.9226 62.1655 80.1599 61.4019C79.3973 60.6383 78.8779 59.6653 78.6673 58.606C78.4568 57.5467 78.5647 56.4487 78.9773 55.4508C79.3899 54.453 80.0887 53.6 80.9853 52.9999C81.8819 52.3999 82.936 52.0796 84.0144 52.0796C85.4594 52.0816 86.8447 52.6572 87.8667 53.6805C88.8887 54.7037 89.4639 56.0909 89.4664 57.5382ZM87.4842 57.5382C87.4839 56.8511 87.2803 56.1795 86.899 55.6082C86.5177 55.037 85.9758 54.5919 85.3419 54.3291C84.708 54.0663 84.0106 53.9976 83.3377 54.1318C82.6649 54.266 82.0468 54.597 81.5618 55.0829C81.0768 55.5689 80.7465 56.188 80.6127 56.8619C80.479 57.5359 80.5477 58.2344 80.8103 58.8692C81.0729 59.504 81.5175 60.0466 82.088 60.4283C82.6584 60.81 83.3291 61.0138 84.0152 61.0138C84.4711 61.0146 84.9226 60.9253 85.344 60.7509C85.7653 60.5765 86.1481 60.3205 86.4705 59.9976C86.7928 59.6747 87.0483 59.2912 87.2223 58.8692C87.3963 58.4471 87.4853 57.9948 87.4843 57.5382H87.4842Z" fill="#333333"/>
<path d="M98.991 59.9441L99.75 61.7435C98.8084 62.549 97.6122 62.9942 96.3738 63C93.3233 63 90.8298 60.5485 90.8298 57.5395C90.8298 54.5305 93.3229 52.0808 96.3738 52.0808C97.5359 52.0808 98.8668 52.5147 99.75 53.3214L98.991 55.1208C98.3003 54.4436 97.3717 54.065 96.4051 54.0665C94.4229 54.0665 92.8124 55.6162 92.8124 57.5395C92.8124 59.4629 94.4229 61.015 96.4051 61.015C96.8858 61.0192 97.3624 60.9266 97.8066 60.7426C98.2509 60.5587 98.6536 60.2871 98.991 59.9441Z" fill="#333333"/>
</g>
<defs>
<clipPath id="clip0_24_71">
<rect width="99" height="63" fill="white" transform="translate(0.75)"/>
</clipPath>
</defs>
</svg>
